<svg xmlns="http://www.w3.org/2000/svg" xmlns:xlink="http://www.w3.org/1999/xlink" width="600" height="400" viewBox="0 0 2400 1600">
<defs>
  <clipPath id="clip740">
    <rect x="0" y="0" width="2400" height="1600"></rect>
  </clipPath>
</defs>
<path clip-path="url(#clip740)" d="M0 1600 L2400 1600 L2400 0 L0 0  Z" fill="#ffffff" fill-rule="evenodd" fill-opacity="1"></path>
<defs>
  <clipPath id="clip741">
    <rect x="480" y="0" width="1681" height="1600"></rect>
  </clipPath>
</defs>
<path clip-path="url(#clip740)" d="M250.028 1423.18 L2352.76 1423.18 L2352.76 123.472 L250.028 123.472  Z" fill="#ffffff" fill-rule="evenodd" fill-opacity="1"></path>
<defs>
  <clipPath id="clip742">
    <rect x="250" y="123" width="2104" height="1301"></rect>
  </clipPath>
</defs>
<polyline clip-path="url(#clip742)" style="stroke:#000000; stroke-linecap:round; stroke-linejoin:round; stroke-width:2; stroke-opacity:0.1; fill:none" points="307.554,1423.18 307.554,123.472 "></polyline>
<polyline clip-path="url(#clip742)" style="stroke:#000000; stroke-linecap:round; stroke-linejoin:round; stroke-width:2; stroke-opacity:0.1; fill:none" points="803.976,1423.18 803.976,123.472 "></polyline>
<polyline clip-path="url(#clip742)" style="stroke:#000000; stroke-linecap:round; stroke-linejoin:round; stroke-width:2; stroke-opacity:0.1; fill:none" points="1300.4,1423.18 1300.4,123.472 "></polyline>
<polyline clip-path="url(#clip742)" style="stroke:#000000; stroke-linecap:round; stroke-linejoin:round; stroke-width:2; stroke-opacity:0.1; fill:none" points="1796.82,1423.18 1796.82,123.472 "></polyline>
<polyline clip-path="url(#clip742)" style="stroke:#000000; stroke-linecap:round; stroke-linejoin:round; stroke-width:2; stroke-opacity:0.1; fill:none" points="2293.24,1423.18 2293.24,123.472 "></polyline>
<polyline clip-path="url(#clip740)" style="stroke:#000000; stroke-linecap:round; stroke-linejoin:round; stroke-width:4; stroke-opacity:1; fill:none" points="250.028,1423.18 2352.76,1423.18 "></polyline>
<polyline clip-path="url(#clip740)" style="stroke:#000000; stroke-linecap:round; stroke-linejoin:round; stroke-width:4; stroke-opacity:1; fill:none" points="307.554,1423.18 307.554,1404.28 "></polyline>
<polyline clip-path="url(#clip740)" style="stroke:#000000; stroke-linecap:round; stroke-linejoin:round; stroke-width:4; stroke-opacity:1; fill:none" points="803.976,1423.18 803.976,1404.28 "></polyline>
<polyline clip-path="url(#clip740)" style="stroke:#000000; stroke-linecap:round; stroke-linejoin:round; stroke-width:4; stroke-opacity:1; fill:none" points="1300.4,1423.18 1300.4,1404.28 "></polyline>
<polyline clip-path="url(#clip740)" style="stroke:#000000; stroke-linecap:round; stroke-linejoin:round; stroke-width:4; stroke-opacity:1; fill:none" points="1796.82,1423.18 1796.82,1404.28 "></polyline>
<polyline clip-path="url(#clip740)" style="stroke:#000000; stroke-linecap:round; stroke-linejoin:round; stroke-width:4; stroke-opacity:1; fill:none" points="2293.24,1423.18 2293.24,1404.28 "></polyline>
<path clip-path="url(#clip740)" d="M307.554 1454.1 Q303.943 1454.1 302.114 1457.66 Q300.308 1461.2 300.308 1468.33 Q300.308 1475.44 302.114 1479.01 Q303.943 1482.55 307.554 1482.55 Q311.188 1482.55 312.993 1479.01 Q314.822 1475.44 314.822 1468.33 Q314.822 1461.2 312.993 1457.66 Q311.188 1454.1 307.554 1454.1 M307.554 1450.39 Q313.364 1450.39 316.419 1455 Q319.498 1459.58 319.498 1468.33 Q319.498 1477.06 316.419 1481.67 Q313.364 1486.25 307.554 1486.25 Q301.743 1486.25 298.665 1481.67 Q295.609 1477.06 295.609 1468.33 Q295.609 1459.58 298.665 1455 Q301.743 1450.39 307.554 1450.39 Z" fill="#000000" fill-rule="nonzero" fill-opacity="1"></path><path clip-path="url(#clip740)" d="M767.669 1481.64 L783.988 1481.64 L783.988 1485.58 L762.044 1485.58 L762.044 1481.64 Q764.706 1478.89 769.289 1474.26 Q773.896 1469.61 775.076 1468.27 Q777.321 1465.74 778.201 1464.01 Q779.104 1462.25 779.104 1460.56 Q779.104 1457.8 777.159 1456.07 Q775.238 1454.33 772.136 1454.33 Q769.937 1454.33 767.484 1455.09 Q765.053 1455.86 762.275 1457.41 L762.275 1452.69 Q765.099 1451.55 767.553 1450.97 Q770.007 1450.39 772.044 1450.39 Q777.414 1450.39 780.608 1453.08 Q783.803 1455.77 783.803 1460.26 Q783.803 1462.39 782.993 1464.31 Q782.206 1466.2 780.099 1468.8 Q779.521 1469.47 776.419 1472.69 Q773.317 1475.88 767.669 1481.64 Z" fill="#000000" fill-rule="nonzero" fill-opacity="1"></path><path clip-path="url(#clip740)" d="M793.849 1451.02 L812.206 1451.02 L812.206 1454.96 L798.132 1454.96 L798.132 1463.43 Q799.15 1463.08 800.169 1462.92 Q801.187 1462.73 802.206 1462.73 Q807.993 1462.73 811.372 1465.9 Q814.752 1469.08 814.752 1474.49 Q814.752 1480.07 811.28 1483.17 Q807.807 1486.25 801.488 1486.25 Q799.312 1486.25 797.044 1485.88 Q794.798 1485.51 792.391 1484.77 L792.391 1480.07 Q794.474 1481.2 796.696 1481.76 Q798.919 1482.32 801.395 1482.32 Q805.4 1482.32 807.738 1480.21 Q810.076 1478.1 810.076 1474.49 Q810.076 1470.88 807.738 1468.77 Q805.4 1466.67 801.395 1466.67 Q799.52 1466.67 797.645 1467.08 Q795.794 1467.5 793.849 1468.38 L793.849 1451.02 Z" fill="#000000" fill-rule="nonzero" fill-opacity="1"></path><path clip-path="url(#clip740)" d="M833.965 1454.1 Q830.354 1454.1 828.525 1457.66 Q826.719 1461.2 826.719 1468.33 Q826.719 1475.44 828.525 1479.01 Q830.354 1482.55 833.965 1482.55 Q837.599 1482.55 839.404 1479.01 Q841.233 1475.44 841.233 1468.33 Q841.233 1461.2 839.404 1457.66 Q837.599 1454.1 833.965 1454.1 M833.965 1450.39 Q839.775 1450.39 842.83 1455 Q845.909 1459.58 845.909 1468.33 Q845.909 1477.06 842.83 1481.67 Q839.775 1486.25 833.965 1486.25 Q828.155 1486.25 825.076 1481.67 Q822.02 1477.06 822.02 1468.33 Q822.02 1459.58 825.076 1455 Q828.155 1450.39 833.965 1450.39 Z" fill="#000000" fill-rule="nonzero" fill-opacity="1"></path><path clip-path="url(#clip740)" d="M1260.02 1451.02 L1278.37 1451.02 L1278.37 1454.96 L1264.3 1454.96 L1264.3 1463.43 Q1265.32 1463.08 1266.34 1462.92 Q1267.36 1462.73 1268.37 1462.73 Q1274.16 1462.73 1277.54 1465.9 Q1280.92 1469.08 1280.92 1474.49 Q1280.92 1480.07 1277.45 1483.17 Q1273.98 1486.25 1267.66 1486.25 Q1265.48 1486.25 1263.21 1485.88 Q1260.97 1485.51 1258.56 1484.77 L1258.56 1480.07 Q1260.64 1481.2 1262.86 1481.76 Q1265.09 1482.32 1267.56 1482.32 Q1271.57 1482.32 1273.91 1480.21 Q1276.24 1478.1 1276.24 1474.49 Q1276.24 1470.88 1273.91 1468.77 Q1271.57 1466.67 1267.56 1466.67 Q1265.69 1466.67 1263.81 1467.08 Q1261.96 1467.5 1260.02 1468.38 L1260.02 1451.02 Z" fill="#000000" fill-rule="nonzero" fill-opacity="1"></path><path clip-path="url(#clip740)" d="M1300.13 1454.1 Q1296.52 1454.1 1294.69 1457.66 Q1292.89 1461.2 1292.89 1468.33 Q1292.89 1475.44 1294.69 1479.01 Q1296.52 1482.55 1300.13 1482.55 Q1303.77 1482.55 1305.57 1479.01 Q1307.4 1475.44 1307.4 1468.33 Q1307.4 1461.2 1305.57 1457.66 Q1303.77 1454.1 1300.13 1454.1 M1300.13 1450.39 Q1305.94 1450.39 1309 1455 Q1312.08 1459.58 1312.08 1468.33 Q1312.08 1477.06 1309 1481.67 Q1305.94 1486.25 1300.13 1486.25 Q1294.32 1486.25 1291.24 1481.67 Q1288.19 1477.06 1288.19 1468.33 Q1288.19 1459.58 1291.24 1455 Q1294.32 1450.39 1300.13 1450.39 Z" fill="#000000" fill-rule="nonzero" fill-opacity="1"></path><path clip-path="url(#clip740)" d="M1330.29 1454.1 Q1326.68 1454.1 1324.86 1457.66 Q1323.05 1461.2 1323.05 1468.33 Q1323.05 1475.44 1324.86 1479.01 Q1326.68 1482.55 1330.29 1482.55 Q1333.93 1482.55 1335.73 1479.01 Q1337.56 1475.44 1337.56 1468.33 Q1337.56 1461.2 1335.73 1457.66 Q1333.93 1454.1 1330.29 1454.1 M1330.29 1450.39 Q1336.11 1450.39 1339.16 1455 Q1342.24 1459.58 1342.24 1468.33 Q1342.24 1477.06 1339.16 1481.67 Q1336.11 1486.25 1330.29 1486.25 Q1324.48 1486.25 1321.41 1481.67 Q1318.35 1477.06 1318.35 1468.33 Q1318.35 1459.58 1321.41 1455 Q1324.48 1450.39 1330.29 1450.39 Z" fill="#000000" fill-rule="nonzero" fill-opacity="1"></path><path clip-path="url(#clip740)" d="M1755.1 1451.02 L1777.32 1451.02 L1777.32 1453.01 L1764.77 1485.58 L1759.89 1485.58 L1771.69 1454.96 L1755.1 1454.96 L1755.1 1451.02 Z" fill="#000000" fill-rule="nonzero" fill-opacity="1"></path><path clip-path="url(#clip740)" d="M1786.49 1451.02 L1804.84 1451.02 L1804.84 1454.96 L1790.77 1454.96 L1790.77 1463.43 Q1791.79 1463.08 1792.81 1462.92 Q1793.82 1462.73 1794.84 1462.73 Q1800.63 1462.73 1804.01 1465.9 Q1807.39 1469.08 1807.39 1474.49 Q1807.39 1480.07 1803.92 1483.17 Q1800.44 1486.25 1794.13 1486.25 Q1791.95 1486.25 1789.68 1485.88 Q1787.44 1485.51 1785.03 1484.77 L1785.03 1480.07 Q1787.11 1481.2 1789.33 1481.76 Q1791.56 1482.32 1794.03 1482.32 Q1798.04 1482.32 1800.38 1480.21 Q1802.71 1478.1 1802.71 1474.49 Q1802.71 1470.88 1800.38 1468.77 Q1798.04 1466.67 1794.03 1466.67 Q1792.16 1466.67 1790.28 1467.08 Q1788.43 1467.5 1786.49 1468.38 L1786.49 1451.02 Z" fill="#000000" fill-rule="nonzero" fill-opacity="1"></path><path clip-path="url(#clip740)" d="M1826.6 1454.1 Q1822.99 1454.1 1821.16 1457.66 Q1819.36 1461.2 1819.36 1468.33 Q1819.36 1475.44 1821.16 1479.01 Q1822.99 1482.55 1826.6 1482.55 Q1830.24 1482.55 1832.04 1479.01 Q1833.87 1475.44 1833.87 1468.33 Q1833.87 1461.2 1832.04 1457.66 Q1830.24 1454.1 1826.6 1454.1 M1826.6 1450.39 Q1832.41 1450.39 1835.47 1455 Q1838.55 1459.58 1838.55 1468.33 Q1838.55 1477.06 1835.47 1481.67 Q1832.41 1486.25 1826.6 1486.25 Q1820.79 1486.25 1817.71 1481.67 Q1814.66 1477.06 1814.66 1468.33 Q1814.66 1459.58 1817.71 1455 Q1820.79 1450.39 1826.6 1450.39 Z" fill="#000000" fill-rule="nonzero" fill-opacity="1"></path><path clip-path="url(#clip740)" d="M2237.77 1481.64 L2245.41 1481.64 L2245.41 1455.28 L2237.1 1456.95 L2237.1 1452.69 L2245.36 1451.02 L2250.04 1451.02 L2250.04 1481.64 L2257.68 1481.64 L2257.68 1485.58 L2237.77 1485.58 L2237.77 1481.64 Z" fill="#000000" fill-rule="nonzero" fill-opacity="1"></path><path clip-path="url(#clip740)" d="M2277.12 1454.1 Q2273.51 1454.1 2271.68 1457.66 Q2269.88 1461.2 2269.88 1468.33 Q2269.88 1475.44 2271.68 1479.01 Q2273.51 1482.55 2277.12 1482.55 Q2280.76 1482.55 2282.56 1479.01 Q2284.39 1475.44 2284.39 1468.33 Q2284.39 1461.2 2282.56 1457.66 Q2280.76 1454.1 2277.12 1454.1 M2277.12 1450.39 Q2282.93 1450.39 2285.99 1455 Q2289.07 1459.58 2289.07 1468.33 Q2289.07 1477.06 2285.99 1481.67 Q2282.93 1486.25 2277.12 1486.25 Q2271.31 1486.25 2268.23 1481.67 Q2265.18 1477.06 2265.18 1468.33 Q2265.18 1459.58 2268.23 1455 Q2271.31 1450.39 2277.12 1450.39 Z" fill="#000000" fill-rule="nonzero" fill-opacity="1"></path><path clip-path="url(#clip740)" d="M2307.28 1454.1 Q2303.67 1454.1 2301.84 1457.66 Q2300.04 1461.2 2300.04 1468.33 Q2300.04 1475.44 2301.84 1479.01 Q2303.67 1482.55 2307.28 1482.55 Q2310.92 1482.55 2312.72 1479.01 Q2314.55 1475.44 2314.55 1468.33 Q2314.55 1461.2 2312.72 1457.66 Q2310.92 1454.1 2307.28 1454.1 M2307.28 1450.39 Q2313.09 1450.39 2316.15 1455 Q2319.23 1459.58 2319.23 1468.33 Q2319.23 1477.06 2316.15 1481.67 Q2313.09 1486.25 2307.28 1486.25 Q2301.47 1486.25 2298.4 1481.67 Q2295.34 1477.06 2295.34 1468.33 Q2295.34 1459.58 2298.4 1455 Q2301.47 1450.39 2307.28 1450.39 Z" fill="#000000" fill-rule="nonzero" fill-opacity="1"></path><path clip-path="url(#clip740)" d="M2337.45 1454.1 Q2333.83 1454.1 2332.01 1457.66 Q2330.2 1461.2 2330.2 1468.33 Q2330.2 1475.44 2332.01 1479.01 Q2333.83 1482.55 2337.45 1482.55 Q2341.08 1482.55 2342.89 1479.01 Q2344.71 1475.44 2344.71 1468.33 Q2344.71 1461.2 2342.89 1457.66 Q2341.08 1454.1 2337.45 1454.1 M2337.45 1450.39 Q2343.26 1450.39 2346.31 1455 Q2349.39 1459.58 2349.39 1468.33 Q2349.39 1477.06 2346.31 1481.67 Q2343.26 1486.25 2337.45 1486.25 Q2331.64 1486.25 2328.56 1481.67 Q2325.5 1477.06 2325.5 1468.33 Q2325.5 1459.58 2328.56 1455 Q2331.64 1450.39 2337.45 1450.39 Z" fill="#000000" fill-rule="nonzero" fill-opacity="1"></path><path clip-path="url(#clip740)" d="M1207.56 1520.52 L1237.61 1520.52 L1237.61 1525.93 L1213.99 1525.93 L1213.99 1540 L1236.62 1540 L1236.62 1545.41 L1213.99 1545.41 L1213.99 1562.63 L1238.18 1562.63 L1238.18 1568.04 L1207.56 1568.04 L1207.56 1520.52 Z" fill="#000000" fill-rule="nonzero" fill-opacity="1"></path><path clip-path="url(#clip740)" d="M1254.16 1562.7 L1254.16 1581.6 L1248.27 1581.6 L1248.27 1532.4 L1254.16 1532.4 L1254.16 1537.81 Q1256 1534.62 1258.81 1533.1 Q1261.64 1531.54 1265.55 1531.54 Q1272.05 1531.54 1276.09 1536.69 Q1280.16 1541.85 1280.16 1550.25 Q1280.16 1558.65 1276.09 1563.81 Q1272.05 1568.97 1265.55 1568.97 Q1261.64 1568.97 1258.81 1567.44 Q1256 1565.88 1254.16 1562.7 M1274.08 1550.25 Q1274.08 1543.79 1271.41 1540.13 Q1268.77 1536.44 1264.12 1536.44 Q1259.47 1536.44 1256.8 1540.13 Q1254.16 1543.79 1254.16 1550.25 Q1254.16 1556.71 1256.8 1560.4 Q1259.47 1564.07 1264.12 1564.07 Q1268.77 1564.07 1271.41 1560.4 Q1274.08 1556.71 1274.08 1550.25 Z" fill="#000000" fill-rule="nonzero" fill-opacity="1"></path><path clip-path="url(#clip740)" d="M1303.68 1536.5 Q1298.97 1536.5 1296.24 1540.19 Q1293.5 1543.85 1293.5 1550.25 Q1293.5 1556.65 1296.2 1560.34 Q1298.94 1564 1303.68 1564 Q1308.36 1564 1311.1 1560.31 Q1313.84 1556.62 1313.84 1550.25 Q1313.84 1543.92 1311.1 1540.23 Q1308.36 1536.5 1303.68 1536.5 M1303.68 1531.54 Q1311.32 1531.54 1315.68 1536.5 Q1320.04 1541.47 1320.04 1550.25 Q1320.04 1559 1315.68 1564 Q1311.32 1568.97 1303.68 1568.97 Q1296.01 1568.97 1291.65 1564 Q1287.32 1559 1287.32 1550.25 Q1287.32 1541.47 1291.65 1536.5 Q1296.01 1531.54 1303.68 1531.54 Z" fill="#000000" fill-rule="nonzero" fill-opacity="1"></path><path clip-path="url(#clip740)" d="M1355.41 1533.76 L1355.41 1539.24 Q1352.92 1537.87 1350.41 1537.2 Q1347.93 1536.5 1345.38 1536.5 Q1339.68 1536.5 1336.53 1540.13 Q1333.38 1543.73 1333.38 1550.25 Q1333.38 1556.78 1336.53 1560.4 Q1339.68 1564 1345.38 1564 Q1347.93 1564 1350.41 1563.33 Q1352.92 1562.63 1355.41 1561.26 L1355.41 1566.68 Q1352.95 1567.82 1350.31 1568.39 Q1347.7 1568.97 1344.74 1568.97 Q1336.69 1568.97 1331.95 1563.91 Q1327.2 1558.85 1327.2 1550.25 Q1327.2 1541.53 1331.98 1536.53 Q1336.79 1531.54 1345.12 1531.54 Q1347.83 1531.54 1350.41 1532.11 Q1352.99 1532.65 1355.41 1533.76 Z" fill="#000000" fill-rule="nonzero" fill-opacity="1"></path><path clip-path="url(#clip740)" d="M1395.22 1546.53 L1395.22 1568.04 L1389.37 1568.04 L1389.37 1546.72 Q1389.37 1541.66 1387.39 1539.14 Q1385.42 1536.63 1381.47 1536.63 Q1376.73 1536.63 1373.99 1539.65 Q1371.26 1542.68 1371.26 1547.9 L1371.26 1568.04 L1365.37 1568.04 L1365.37 1518.52 L1371.26 1518.52 L1371.26 1537.93 Q1373.36 1534.72 1376.19 1533.13 Q1379.05 1531.54 1382.78 1531.54 Q1388.92 1531.54 1392.07 1535.36 Q1395.22 1539.14 1395.22 1546.53 Z" fill="#000000" fill-rule="nonzero" fill-opacity="1"></path><polyline clip-path="url(#clip742)" style="stroke:#000000; stroke-linecap:round; stroke-linejoin:round; stroke-width:2; stroke-opacity:0.1; fill:none" points="250.028,1307.93 2352.76,1307.93 "></polyline>
<polyline clip-path="url(#clip742)" style="stroke:#000000; stroke-linecap:round; stroke-linejoin:round; stroke-width:2; stroke-opacity:0.1; fill:none" points="250.028,1138.64 2352.76,1138.64 "></polyline>
<polyline clip-path="url(#clip742)" style="stroke:#000000; stroke-linecap:round; stroke-linejoin:round; stroke-width:2; stroke-opacity:0.1; fill:none" points="250.028,969.339 2352.76,969.339 "></polyline>
<polyline clip-path="url(#clip742)" style="stroke:#000000; stroke-linecap:round; stroke-linejoin:round; stroke-width:2; stroke-opacity:0.1; fill:none" points="250.028,800.042 2352.76,800.042 "></polyline>
<polyline clip-path="url(#clip742)" style="stroke:#000000; stroke-linecap:round; stroke-linejoin:round; stroke-width:2; stroke-opacity:0.1; fill:none" points="250.028,630.745 2352.76,630.745 "></polyline>
<polyline clip-path="url(#clip742)" style="stroke:#000000; stroke-linecap:round; stroke-linejoin:round; stroke-width:2; stroke-opacity:0.1; fill:none" points="250.028,461.448 2352.76,461.448 "></polyline>
<polyline clip-path="url(#clip742)" style="stroke:#000000; stroke-linecap:round; stroke-linejoin:round; stroke-width:2; stroke-opacity:0.1; fill:none" points="250.028,292.15 2352.76,292.15 "></polyline>
<polyline clip-path="url(#clip740)" style="stroke:#000000; stroke-linecap:round; stroke-linejoin:round; stroke-width:4; stroke-opacity:1; fill:none" points="250.028,1423.18 250.028,123.472 "></polyline>
<polyline clip-path="url(#clip740)" style="stroke:#000000; stroke-linecap:round; stroke-linejoin:round; stroke-width:4; stroke-opacity:1; fill:none" points="250.028,1307.93 268.926,1307.93 "></polyline>
<polyline clip-path="url(#clip740)" style="stroke:#000000; stroke-linecap:round; stroke-linejoin:round; stroke-width:4; stroke-opacity:1; fill:none" points="250.028,1138.64 268.926,1138.64 "></polyline>
<polyline clip-path="url(#clip740)" style="stroke:#000000; stroke-linecap:round; stroke-linejoin:round; stroke-width:4; stroke-opacity:1; fill:none" points="250.028,969.339 268.926,969.339 "></polyline>
<polyline clip-path="url(#clip740)" style="stroke:#000000; stroke-linecap:round; stroke-linejoin:round; stroke-width:4; stroke-opacity:1; fill:none" points="250.028,800.042 268.926,800.042 "></polyline>
<polyline clip-path="url(#clip740)" style="stroke:#000000; stroke-linecap:round; stroke-linejoin:round; stroke-width:4; stroke-opacity:1; fill:none" points="250.028,630.745 268.926,630.745 "></polyline>
<polyline clip-path="url(#clip740)" style="stroke:#000000; stroke-linecap:round; stroke-linejoin:round; stroke-width:4; stroke-opacity:1; fill:none" points="250.028,461.448 268.926,461.448 "></polyline>
<polyline clip-path="url(#clip740)" style="stroke:#000000; stroke-linecap:round; stroke-linejoin:round; stroke-width:4; stroke-opacity:1; fill:none" points="250.028,292.15 268.926,292.15 "></polyline>
<path clip-path="url(#clip740)" d="M128.288 1293.73 Q124.677 1293.73 122.848 1297.3 Q121.043 1300.84 121.043 1307.97 Q121.043 1315.07 122.848 1318.64 Q124.677 1322.18 128.288 1322.18 Q131.922 1322.18 133.728 1318.64 Q135.556 1315.07 135.556 1307.97 Q135.556 1300.84 133.728 1297.3 Q131.922 1293.73 128.288 1293.73 M128.288 1290.03 Q134.098 1290.03 137.154 1294.63 Q140.232 1299.22 140.232 1307.97 Q140.232 1316.69 137.154 1321.3 Q134.098 1325.88 128.288 1325.88 Q122.478 1325.88 119.399 1321.3 Q116.343 1316.69 116.343 1307.97 Q116.343 1299.22 119.399 1294.63 Q122.478 1290.03 128.288 1290.03 Z" fill="#000000" fill-rule="nonzero" fill-opacity="1"></path><path clip-path="url(#clip740)" d="M148.45 1319.33 L153.334 1319.33 L153.334 1325.21 L148.45 1325.21 L148.45 1319.33 Z" fill="#000000" fill-rule="nonzero" fill-opacity="1"></path><path clip-path="url(#clip740)" d="M164.329 1321.28 L171.968 1321.28 L171.968 1294.91 L163.658 1296.58 L163.658 1292.32 L171.922 1290.65 L176.598 1290.65 L176.598 1321.28 L184.237 1321.28 L184.237 1325.21 L164.329 1325.21 L164.329 1321.28 Z" fill="#000000" fill-rule="nonzero" fill-opacity="1"></path><path clip-path="url(#clip740)" d="M197.709 1321.28 L214.028 1321.28 L214.028 1325.21 L192.084 1325.21 L192.084 1321.28 Q194.746 1318.52 199.329 1313.89 Q203.936 1309.24 205.116 1307.9 Q207.362 1305.38 208.241 1303.64 Q209.144 1301.88 209.144 1300.19 Q209.144 1297.44 207.199 1295.7 Q205.278 1293.96 202.176 1293.96 Q199.977 1293.96 197.524 1294.73 Q195.093 1295.49 192.315 1297.04 L192.315 1292.32 Q195.139 1291.19 197.593 1290.61 Q200.047 1290.03 202.084 1290.03 Q207.454 1290.03 210.649 1292.71 Q213.843 1295.4 213.843 1299.89 Q213.843 1302.02 213.033 1303.94 Q212.246 1305.84 210.139 1308.43 Q209.561 1309.1 206.459 1312.32 Q203.357 1315.51 197.709 1321.28 Z" fill="#000000" fill-rule="nonzero" fill-opacity="1"></path><path clip-path="url(#clip740)" d="M126.205 1124.43 Q122.593 1124.43 120.765 1128 Q118.959 1131.54 118.959 1138.67 Q118.959 1145.78 120.765 1149.34 Q122.593 1152.88 126.205 1152.88 Q129.839 1152.88 131.644 1149.34 Q133.473 1145.78 133.473 1138.67 Q133.473 1131.54 131.644 1128 Q129.839 1124.43 126.205 1124.43 M126.205 1120.73 Q132.015 1120.73 135.07 1125.34 Q138.149 1129.92 138.149 1138.67 Q138.149 1147.4 135.07 1152 Q132.015 1156.59 126.205 1156.59 Q120.394 1156.59 117.316 1152 Q114.26 1147.4 114.26 1138.67 Q114.26 1129.92 117.316 1125.34 Q120.394 1120.73 126.205 1120.73 Z" fill="#000000" fill-rule="nonzero" fill-opacity="1"></path><path clip-path="url(#clip740)" d="M146.366 1150.04 L151.251 1150.04 L151.251 1155.92 L146.366 1155.92 L146.366 1150.04 Z" fill="#000000" fill-rule="nonzero" fill-opacity="1"></path><path clip-path="url(#clip740)" d="M162.246 1151.98 L169.885 1151.98 L169.885 1125.62 L161.575 1127.28 L161.575 1123.02 L169.839 1121.36 L174.514 1121.36 L174.514 1151.98 L182.153 1151.98 L182.153 1155.92 L162.246 1155.92 L162.246 1151.98 Z" fill="#000000" fill-rule="nonzero" fill-opacity="1"></path><path clip-path="url(#clip740)" d="M204.445 1125.43 L192.639 1143.88 L204.445 1143.88 L204.445 1125.43 M203.218 1121.36 L209.098 1121.36 L209.098 1143.88 L214.028 1143.88 L214.028 1147.77 L209.098 1147.77 L209.098 1155.92 L204.445 1155.92 L204.445 1147.77 L188.843 1147.77 L188.843 1143.25 L203.218 1121.36 Z" fill="#000000" fill-rule="nonzero" fill-opacity="1"></path><path clip-path="url(#clip740)" d="M126.529 955.138 Q122.918 955.138 121.089 958.702 Q119.283 962.244 119.283 969.374 Q119.283 976.48 121.089 980.045 Q122.918 983.587 126.529 983.587 Q130.163 983.587 131.968 980.045 Q133.797 976.48 133.797 969.374 Q133.797 962.244 131.968 958.702 Q130.163 955.138 126.529 955.138 M126.529 951.434 Q132.339 951.434 135.394 956.04 Q138.473 960.624 138.473 969.374 Q138.473 978.1 135.394 982.707 Q132.339 987.29 126.529 987.29 Q120.718 987.29 117.64 982.707 Q114.584 978.1 114.584 969.374 Q114.584 960.624 117.64 956.04 Q120.718 951.434 126.529 951.434 Z" fill="#000000" fill-rule="nonzero" fill-opacity="1"></path><path clip-path="url(#clip740)" d="M146.691 980.739 L151.575 980.739 L151.575 986.619 L146.691 986.619 L146.691 980.739 Z" fill="#000000" fill-rule="nonzero" fill-opacity="1"></path><path clip-path="url(#clip740)" d="M162.57 982.684 L170.209 982.684 L170.209 956.318 L161.899 957.985 L161.899 953.726 L170.163 952.059 L174.839 952.059 L174.839 982.684 L182.477 982.684 L182.477 986.619 L162.57 986.619 L162.57 982.684 Z" fill="#000000" fill-rule="nonzero" fill-opacity="1"></path><path clip-path="url(#clip740)" d="M202.5 967.475 Q199.352 967.475 197.5 969.628 Q195.672 971.781 195.672 975.531 Q195.672 979.258 197.5 981.434 Q199.352 983.587 202.5 983.587 Q205.649 983.587 207.477 981.434 Q209.329 979.258 209.329 975.531 Q209.329 971.781 207.477 969.628 Q205.649 967.475 202.5 967.475 M211.783 952.823 L211.783 957.082 Q210.024 956.249 208.218 955.809 Q206.436 955.369 204.676 955.369 Q200.047 955.369 197.593 958.494 Q195.163 961.619 194.815 967.938 Q196.181 965.925 198.241 964.86 Q200.301 963.772 202.778 963.772 Q207.987 963.772 210.996 966.943 Q214.028 970.091 214.028 975.531 Q214.028 980.855 210.88 984.073 Q207.732 987.29 202.5 987.29 Q196.505 987.29 193.334 982.707 Q190.163 978.1 190.163 969.374 Q190.163 961.179 194.051 956.318 Q197.94 951.434 204.491 951.434 Q206.25 951.434 208.033 951.781 Q209.838 952.128 211.783 952.823 Z" fill="#000000" fill-rule="nonzero" fill-opacity="1"></path><path clip-path="url(#clip740)" d="M126.783 785.84 Q123.172 785.84 121.343 789.405 Q119.538 792.947 119.538 800.077 Q119.538 807.183 121.343 810.748 Q123.172 814.289 126.783 814.289 Q130.417 814.289 132.223 810.748 Q134.052 807.183 134.052 800.077 Q134.052 792.947 132.223 789.405 Q130.417 785.84 126.783 785.84 M126.783 782.137 Q132.593 782.137 135.649 786.743 Q138.728 791.327 138.728 800.077 Q138.728 808.803 135.649 813.41 Q132.593 817.993 126.783 817.993 Q120.973 817.993 117.894 813.41 Q114.839 808.803 114.839 800.077 Q114.839 791.327 117.894 786.743 Q120.973 782.137 126.783 782.137 Z" fill="#000000" fill-rule="nonzero" fill-opacity="1"></path><path clip-path="url(#clip740)" d="M146.945 811.442 L151.829 811.442 L151.829 817.322 L146.945 817.322 L146.945 811.442 Z" fill="#000000" fill-rule="nonzero" fill-opacity="1"></path><path clip-path="url(#clip740)" d="M162.825 813.387 L170.464 813.387 L170.464 787.021 L162.153 788.688 L162.153 784.428 L170.417 782.762 L175.093 782.762 L175.093 813.387 L182.732 813.387 L182.732 817.322 L162.825 817.322 L162.825 813.387 Z" fill="#000000" fill-rule="nonzero" fill-opacity="1"></path><path clip-path="url(#clip740)" d="M202.176 800.91 Q198.843 800.91 196.922 802.692 Q195.024 804.475 195.024 807.6 Q195.024 810.725 196.922 812.507 Q198.843 814.289 202.176 814.289 Q205.51 814.289 207.431 812.507 Q209.352 810.701 209.352 807.6 Q209.352 804.475 207.431 802.692 Q205.533 800.91 202.176 800.91 M197.5 798.919 Q194.491 798.178 192.801 796.118 Q191.135 794.058 191.135 791.095 Q191.135 786.952 194.075 784.544 Q197.037 782.137 202.176 782.137 Q207.338 782.137 210.278 784.544 Q213.218 786.952 213.218 791.095 Q213.218 794.058 211.528 796.118 Q209.861 798.178 206.875 798.919 Q210.255 799.706 212.13 801.998 Q214.028 804.289 214.028 807.6 Q214.028 812.623 210.949 815.308 Q207.894 817.993 202.176 817.993 Q196.459 817.993 193.38 815.308 Q190.325 812.623 190.325 807.6 Q190.325 804.289 192.223 801.998 Q194.121 799.706 197.5 798.919 M195.787 791.535 Q195.787 794.22 197.454 795.725 Q199.144 797.229 202.176 797.229 Q205.186 797.229 206.875 795.725 Q208.588 794.22 208.588 791.535 Q208.588 788.85 206.875 787.345 Q205.186 785.84 202.176 785.84 Q199.144 785.84 197.454 787.345 Q195.787 788.85 195.787 791.535 Z" fill="#000000" fill-rule="nonzero" fill-opacity="1"></path><path clip-path="url(#clip740)" d="M126.691 616.543 Q123.08 616.543 121.251 620.108 Q119.445 623.65 119.445 630.779 Q119.445 637.886 121.251 641.451 Q123.08 644.992 126.691 644.992 Q130.325 644.992 132.13 641.451 Q133.959 637.886 133.959 630.779 Q133.959 623.65 132.13 620.108 Q130.325 616.543 126.691 616.543 M126.691 612.84 Q132.501 612.84 135.556 617.446 Q138.635 622.029 138.635 630.779 Q138.635 639.506 135.556 644.113 Q132.501 648.696 126.691 648.696 Q120.88 648.696 117.802 644.113 Q114.746 639.506 114.746 630.779 Q114.746 622.029 117.802 617.446 Q120.88 612.84 126.691 612.84 Z" fill="#000000" fill-rule="nonzero" fill-opacity="1"></path><path clip-path="url(#clip740)" d="M146.853 642.145 L151.737 642.145 L151.737 648.025 L146.853 648.025 L146.853 642.145 Z" fill="#000000" fill-rule="nonzero" fill-opacity="1"></path><path clip-path="url(#clip740)" d="M165.95 644.09 L182.269 644.09 L182.269 648.025 L160.325 648.025 L160.325 644.09 Q162.987 641.335 167.57 636.705 Q172.177 632.053 173.357 630.71 Q175.602 628.187 176.482 626.451 Q177.385 624.691 177.385 623.002 Q177.385 620.247 175.44 618.511 Q173.519 616.775 170.417 616.775 Q168.218 616.775 165.765 617.539 Q163.334 618.303 160.556 619.854 L160.556 615.131 Q163.38 613.997 165.834 613.418 Q168.288 612.84 170.325 612.84 Q175.695 612.84 178.889 615.525 Q182.084 618.21 182.084 622.701 Q182.084 624.83 181.274 626.752 Q180.487 628.65 178.38 631.242 Q177.801 631.914 174.7 635.131 Q171.598 638.326 165.95 644.09 Z" fill="#000000" fill-rule="nonzero" fill-opacity="1"></path><path clip-path="url(#clip740)" d="M202.084 616.543 Q198.473 616.543 196.644 620.108 Q194.838 623.65 194.838 630.779 Q194.838 637.886 196.644 641.451 Q198.473 644.992 202.084 644.992 Q205.718 644.992 207.524 641.451 Q209.352 637.886 209.352 630.779 Q209.352 623.65 207.524 620.108 Q205.718 616.543 202.084 616.543 M202.084 612.84 Q207.894 612.84 210.949 617.446 Q214.028 622.029 214.028 630.779 Q214.028 639.506 210.949 644.113 Q207.894 648.696 202.084 648.696 Q196.274 648.696 193.195 644.113 Q190.139 639.506 190.139 630.779 Q190.139 622.029 193.195 617.446 Q196.274 612.84 202.084 612.84 Z" fill="#000000" fill-rule="nonzero" fill-opacity="1"></path><path clip-path="url(#clip740)" d="M128.288 447.246 Q124.677 447.246 122.848 450.811 Q121.043 454.353 121.043 461.482 Q121.043 468.589 122.848 472.154 Q124.677 475.695 128.288 475.695 Q131.922 475.695 133.728 472.154 Q135.556 468.589 135.556 461.482 Q135.556 454.353 133.728 450.811 Q131.922 447.246 128.288 447.246 M128.288 443.543 Q134.098 443.543 137.154 448.149 Q140.232 452.732 140.232 461.482 Q140.232 470.209 137.154 474.816 Q134.098 479.399 128.288 479.399 Q122.478 479.399 119.399 474.816 Q116.343 470.209 116.343 461.482 Q116.343 452.732 119.399 448.149 Q122.478 443.543 128.288 443.543 Z" fill="#000000" fill-rule="nonzero" fill-opacity="1"></path><path clip-path="url(#clip740)" d="M148.45 472.848 L153.334 472.848 L153.334 478.728 L148.45 478.728 L148.45 472.848 Z" fill="#000000" fill-rule="nonzero" fill-opacity="1"></path><path clip-path="url(#clip740)" d="M167.547 474.792 L183.866 474.792 L183.866 478.728 L161.922 478.728 L161.922 474.792 Q164.584 472.038 169.167 467.408 Q173.774 462.755 174.954 461.413 Q177.2 458.89 178.079 457.154 Q178.982 455.394 178.982 453.705 Q178.982 450.95 177.038 449.214 Q175.116 447.478 172.014 447.478 Q169.815 447.478 167.362 448.242 Q164.931 449.005 162.153 450.556 L162.153 445.834 Q164.977 444.7 167.431 444.121 Q169.885 443.543 171.922 443.543 Q177.292 443.543 180.487 446.228 Q183.681 448.913 183.681 453.404 Q183.681 455.533 182.871 457.455 Q182.084 459.353 179.977 461.945 Q179.399 462.617 176.297 465.834 Q173.195 469.029 167.547 474.792 Z" fill="#000000" fill-rule="nonzero" fill-opacity="1"></path><path clip-path="url(#clip740)" d="M197.709 474.792 L214.028 474.792 L214.028 478.728 L192.084 478.728 L192.084 474.792 Q194.746 472.038 199.329 467.408 Q203.936 462.755 205.116 461.413 Q207.362 458.89 208.241 457.154 Q209.144 455.394 209.144 453.705 Q209.144 450.95 207.199 449.214 Q205.278 447.478 202.176 447.478 Q199.977 447.478 197.524 448.242 Q195.093 449.005 192.315 450.556 L192.315 445.834 Q195.139 444.7 197.593 444.121 Q200.047 443.543 202.084 443.543 Q207.454 443.543 210.649 446.228 Q213.843 448.913 213.843 453.404 Q213.843 455.533 213.033 457.455 Q212.246 459.353 210.139 461.945 Q209.561 462.617 206.459 465.834 Q203.357 469.029 197.709 474.792 Z" fill="#000000" fill-rule="nonzero" fill-opacity="1"></path><path clip-path="url(#clip740)" d="M126.205 277.949 Q122.593 277.949 120.765 281.514 Q118.959 285.056 118.959 292.185 Q118.959 299.292 120.765 302.856 Q122.593 306.398 126.205 306.398 Q129.839 306.398 131.644 302.856 Q133.473 299.292 133.473 292.185 Q133.473 285.056 131.644 281.514 Q129.839 277.949 126.205 277.949 M126.205 274.245 Q132.015 274.245 135.07 278.852 Q138.149 283.435 138.149 292.185 Q138.149 300.912 135.07 305.518 Q132.015 310.102 126.205 310.102 Q120.394 310.102 117.316 305.518 Q114.26 300.912 114.26 292.185 Q114.26 283.435 117.316 278.852 Q120.394 274.245 126.205 274.245 Z" fill="#000000" fill-rule="nonzero" fill-opacity="1"></path><path clip-path="url(#clip740)" d="M146.366 303.551 L151.251 303.551 L151.251 309.43 L146.366 309.43 L146.366 303.551 Z" fill="#000000" fill-rule="nonzero" fill-opacity="1"></path><path clip-path="url(#clip740)" d="M165.464 305.495 L181.783 305.495 L181.783 309.43 L159.839 309.43 L159.839 305.495 Q162.501 302.741 167.084 298.111 Q171.69 293.458 172.871 292.116 Q175.116 289.593 175.996 287.856 Q176.899 286.097 176.899 284.407 Q176.899 281.653 174.954 279.917 Q173.033 278.181 169.931 278.181 Q167.732 278.181 165.278 278.944 Q162.848 279.708 160.07 281.259 L160.07 276.537 Q162.894 275.403 165.348 274.824 Q167.802 274.245 169.839 274.245 Q175.209 274.245 178.403 276.931 Q181.598 279.616 181.598 284.106 Q181.598 286.236 180.788 288.157 Q180.001 290.056 177.894 292.648 Q177.315 293.319 174.214 296.537 Q171.112 299.731 165.464 305.495 Z" fill="#000000" fill-rule="nonzero" fill-opacity="1"></path><path clip-path="url(#clip740)" d="M204.445 278.944 L192.639 297.393 L204.445 297.393 L204.445 278.944 M203.218 274.87 L209.098 274.87 L209.098 297.393 L214.028 297.393 L214.028 301.282 L209.098 301.282 L209.098 309.43 L204.445 309.43 L204.445 301.282 L188.843 301.282 L188.843 296.768 L203.218 274.87 Z" fill="#000000" fill-rule="nonzero" fill-opacity="1"></path><path clip-path="url(#clip740)" d="M16.4842 982.344 L16.4842 975.915 L58.5933 975.915 L58.5933 952.775 L64.0042 952.775 L64.0042 982.344 L16.4842 982.344 Z" fill="#000000" fill-rule="nonzero" fill-opacity="1"></path><path clip-path="url(#clip740)" d="M32.4621 933.614 Q32.4621 938.325 36.1542 941.062 Q39.8145 943.8 46.212 943.8 Q52.6095 943.8 56.3017 941.094 Q59.9619 938.357 59.9619 933.614 Q59.9619 928.936 56.2698 926.198 Q52.5777 923.461 46.212 923.461 Q39.8781 923.461 36.186 926.198 Q32.4621 928.936 32.4621 933.614 M27.4968 933.614 Q27.4968 925.976 32.4621 921.615 Q37.4273 917.255 46.212 917.255 Q54.9649 917.255 59.9619 921.615 Q64.9272 925.976 64.9272 933.614 Q64.9272 941.285 59.9619 945.646 Q54.9649 949.974 46.212 949.974 Q37.4273 949.974 32.4621 945.646 Q27.4968 941.285 27.4968 933.614 Z" fill="#000000" fill-rule="nonzero" fill-opacity="1"></path><path clip-path="url(#clip740)" d="M29.4065 884.821 L34.9447 884.821 Q33.6716 887.304 33.035 889.978 Q32.3984 892.651 32.3984 895.516 Q32.3984 899.876 33.7352 902.072 Q35.072 904.237 37.7456 904.237 Q39.7826 904.237 40.9603 902.677 Q42.1061 901.118 43.1565 896.407 L43.6021 894.402 Q44.9389 888.163 47.3897 885.553 Q49.8086 882.912 54.1691 882.912 Q59.1344 882.912 62.0308 886.858 Q64.9272 890.773 64.9272 897.648 Q64.9272 900.513 64.3543 903.632 Q63.8132 906.719 62.6992 910.157 L56.6518 910.157 Q58.3387 906.91 59.198 903.759 Q60.0256 900.608 60.0256 897.521 Q60.0256 893.383 58.6251 891.155 Q57.1929 888.927 54.6147 888.927 Q52.2276 888.927 50.9545 890.55 Q49.6813 892.142 48.5037 897.585 L48.0262 899.622 Q46.8804 905.064 44.5251 907.483 Q42.138 909.902 38.0002 909.902 Q32.9713 909.902 30.2341 906.337 Q27.4968 902.773 27.4968 896.216 Q27.4968 892.969 27.9743 890.105 Q28.4517 887.24 29.4065 884.821 Z" fill="#000000" fill-rule="nonzero" fill-opacity="1"></path><path clip-path="url(#clip740)" d="M29.4065 850.86 L34.9447 850.86 Q33.6716 853.343 33.035 856.017 Q32.3984 858.69 32.3984 861.555 Q32.3984 865.915 33.7352 868.111 Q35.072 870.276 37.7456 870.276 Q39.7826 870.276 40.9603 868.716 Q42.1061 867.156 43.1565 862.446 L43.6021 860.441 Q44.9389 854.202 47.3897 851.592 Q49.8086 848.951 54.1691 848.951 Q59.1344 848.951 62.0308 852.897 Q64.9272 856.812 64.9272 863.687 Q64.9272 866.552 64.3543 869.671 Q63.8132 872.758 62.6992 876.196 L56.6518 876.196 Q58.3387 872.949 59.198 869.798 Q60.0256 866.647 60.0256 863.56 Q60.0256 859.422 58.6251 857.194 Q57.1929 854.966 54.6147 854.966 Q52.2276 854.966 50.9545 856.589 Q49.6813 858.181 48.5037 863.624 L48.0262 865.661 Q46.8804 871.103 44.5251 873.522 Q42.138 875.941 38.0002 875.941 Q32.9713 875.941 30.2341 872.376 Q27.4968 868.812 27.4968 862.255 Q27.4968 859.008 27.9743 856.144 Q28.4517 853.279 29.4065 850.86 Z" fill="#000000" fill-rule="nonzero" fill-opacity="1"></path><path clip-path="url(#clip740)" d="M14.479 800.858 L19.3487 800.858 L19.3487 806.459 Q19.3487 809.611 20.6219 810.852 Q21.895 812.061 25.2052 812.061 L28.3562 812.061 L28.3562 802.417 L32.9077 802.417 L32.9077 812.061 L64.0042 812.061 L64.0042 817.95 L32.9077 817.95 L32.9077 823.551 L28.3562 823.551 L28.3562 817.95 L25.8736 817.95 Q19.9216 817.95 17.2162 815.181 Q14.479 812.411 14.479 806.396 L14.479 800.858 Z" fill="#000000" fill-rule="nonzero" fill-opacity="1"></path><path clip-path="url(#clip740)" d="M49.9359 796.561 L28.3562 796.561 L28.3562 790.704 L49.7131 790.704 Q54.7739 790.704 57.3202 788.731 Q59.8346 786.758 59.8346 782.811 Q59.8346 778.068 56.8109 775.331 Q53.7872 772.562 48.5673 772.562 L28.3562 772.562 L28.3562 766.706 L64.0042 766.706 L64.0042 772.562 L58.5296 772.562 Q61.7762 774.695 63.3676 777.527 Q64.9272 780.328 64.9272 784.052 Q64.9272 790.195 61.1078 793.378 Q57.2883 796.561 49.9359 796.561 M27.4968 781.824 L27.4968 781.824 Z" fill="#000000" fill-rule="nonzero" fill-opacity="1"></path><path clip-path="url(#clip740)" d="M42.4881 725.01 L64.0042 725.01 L64.0042 730.867 L42.679 730.867 Q37.6183 730.867 35.1038 732.84 Q32.5894 734.813 32.5894 738.76 Q32.5894 743.503 35.6131 746.24 Q38.6368 748.977 43.8567 748.977 L64.0042 748.977 L64.0042 754.865 L28.3562 754.865 L28.3562 748.977 L33.8944 748.977 Q30.6797 746.876 29.0883 744.044 Q27.4968 741.179 27.4968 737.455 Q27.4968 731.312 31.3163 728.161 Q35.1038 725.01 42.4881 725.01 Z" fill="#000000" fill-rule="nonzero" fill-opacity="1"></path><path clip-path="url(#clip740)" d="M29.7248 687.675 L35.1993 687.675 Q33.8307 690.158 33.1623 692.672 Q32.4621 695.155 32.4621 697.701 Q32.4621 703.399 36.0905 706.55 Q39.6872 709.701 46.212 709.701 Q52.7369 709.701 56.3653 706.55 Q59.9619 703.399 59.9619 697.701 Q59.9619 695.155 59.2935 692.672 Q58.5933 690.158 57.2247 687.675 L62.6355 687.675 Q63.7814 690.126 64.3543 692.768 Q64.9272 695.378 64.9272 698.338 Q64.9272 706.391 59.8664 711.133 Q54.8057 715.875 46.212 715.875 Q37.491 715.875 32.4939 711.101 Q27.4968 706.295 27.4968 697.956 Q27.4968 695.251 28.0697 692.672 Q28.6108 690.094 29.7248 687.675 Z" fill="#000000" fill-rule="nonzero" fill-opacity="1"></path><path clip-path="url(#clip740)" d="M18.2347 671.697 L28.3562 671.697 L28.3562 659.634 L32.9077 659.634 L32.9077 671.697 L52.2594 671.697 Q56.6199 671.697 57.8613 670.52 Q59.1026 669.31 59.1026 665.65 L59.1026 659.634 L64.0042 659.634 L64.0042 665.65 Q64.0042 672.43 61.4897 675.008 Q58.9434 677.586 52.2594 677.586 L32.9077 677.586 L32.9077 681.883 L28.3562 681.883 L28.3562 677.586 L18.2347 677.586 L18.2347 671.697 Z" fill="#000000" fill-rule="nonzero" fill-opacity="1"></path><path clip-path="url(#clip740)" d="M28.3562 651.932 L28.3562 646.076 L64.0042 646.076 L64.0042 651.932 L28.3562 651.932 M14.479 651.932 L14.479 646.076 L21.895 646.076 L21.895 651.932 L14.479 651.932 Z" fill="#000000" fill-rule="nonzero" fill-opacity="1"></path><path clip-path="url(#clip740)" d="M32.4621 620.008 Q32.4621 624.719 36.1542 627.456 Q39.8145 630.193 46.212 630.193 Q52.6095 630.193 56.3017 627.488 Q59.9619 624.75 59.9619 620.008 Q59.9619 615.329 56.2698 612.592 Q52.5777 609.855 46.212 609.855 Q39.8781 609.855 36.186 612.592 Q32.4621 615.329 32.4621 620.008 M27.4968 620.008 Q27.4968 612.369 32.4621 608.009 Q37.4273 603.648 46.212 603.648 Q54.9649 603.648 59.9619 608.009 Q64.9272 612.369 64.9272 620.008 Q64.9272 627.679 59.9619 632.039 Q54.9649 636.368 46.212 636.368 Q37.4273 636.368 32.4621 632.039 Q27.4968 627.679 27.4968 620.008 Z" fill="#000000" fill-rule="nonzero" fill-opacity="1"></path><path clip-path="url(#clip740)" d="M42.4881 564.308 L64.0042 564.308 L64.0042 570.164 L42.679 570.164 Q37.6183 570.164 35.1038 572.138 Q32.5894 574.111 32.5894 578.058 Q32.5894 582.8 35.6131 585.538 Q38.6368 588.275 43.8567 588.275 L64.0042 588.275 L64.0042 594.163 L28.3562 594.163 L28.3562 588.275 L33.8944 588.275 Q30.6797 586.174 29.0883 583.341 Q27.4968 580.477 27.4968 576.753 Q27.4968 570.61 31.3163 567.459 Q35.1038 564.308 42.4881 564.308 Z" fill="#000000" fill-rule="nonzero" fill-opacity="1"></path><path clip-path="url(#clip740)" d="M783.362 12.096 L834.525 12.096 L834.525 18.9825 L813.056 18.9825 L813.056 72.576 L804.832 72.576 L804.832 18.9825 L783.362 18.9825 L783.362 12.096 Z" fill="#000000" fill-rule="nonzero" fill-opacity="1"></path><path clip-path="url(#clip740)" d="M856.198 34.1734 Q854.942 33.4443 853.443 33.1202 Q851.985 32.7556 850.202 32.7556 Q843.883 32.7556 840.48 36.8875 Q837.118 40.9789 837.118 48.6757 L837.118 72.576 L829.624 72.576 L829.624 27.2059 L837.118 27.2059 L837.118 34.2544 Q839.467 30.1225 843.235 28.1376 Q847.002 26.1121 852.39 26.1121 Q853.159 26.1121 854.091 26.2337 Q855.023 26.3147 856.157 26.5172 L856.198 34.1734 Z" fill="#000000" fill-rule="nonzero" fill-opacity="1"></path><path clip-path="url(#clip740)" d="M884.635 49.7694 Q875.601 49.7694 872.118 51.8354 Q868.634 53.9013 868.634 58.8839 Q868.634 62.8538 871.227 65.2034 Q873.86 67.5124 878.356 67.5124 Q884.554 67.5124 888.281 63.1374 Q892.048 58.7219 892.048 51.4303 L892.048 49.7694 L884.635 49.7694 M899.502 46.6907 L899.502 72.576 L892.048 72.576 L892.048 65.6895 Q889.496 69.8214 885.688 71.8063 Q881.88 73.7508 876.371 73.7508 Q869.404 73.7508 865.272 69.8619 Q861.18 65.9325 861.18 59.3701 Q861.18 51.7138 866.284 47.825 Q871.429 43.9361 881.597 43.9361 L892.048 43.9361 L892.048 43.2069 Q892.048 38.0623 888.645 35.2672 Q885.283 32.4315 879.166 32.4315 Q875.277 32.4315 871.591 33.3632 Q867.905 34.295 864.502 36.1584 L864.502 29.2718 Q868.593 27.692 872.442 26.9223 Q876.29 26.1121 879.936 26.1121 Q889.78 26.1121 894.641 31.2163 Q899.502 36.3204 899.502 46.6907 Z" fill="#000000" fill-rule="nonzero" fill-opacity="1"></path><path clip-path="url(#clip740)" d="M914.855 27.2059 L922.308 27.2059 L922.308 72.576 L914.855 72.576 L914.855 27.2059 M914.855 9.54393 L922.308 9.54393 L922.308 18.9825 L914.855 18.9825 L914.855 9.54393 Z" fill="#000000" fill-rule="nonzero" fill-opacity="1"></path><path clip-path="url(#clip740)" d="M975.618 45.1919 L975.618 72.576 L968.165 72.576 L968.165 45.4349 Q968.165 38.994 965.653 35.7938 Q963.142 32.5936 958.118 32.5936 Q952.083 32.5936 948.599 36.4419 Q945.115 40.2903 945.115 46.9338 L945.115 72.576 L937.621 72.576 L937.621 27.2059 L945.115 27.2059 L945.115 34.2544 Q947.789 30.163 951.394 28.1376 Q955.04 26.1121 959.779 26.1121 Q967.598 26.1121 971.608 30.9732 Q975.618 35.7938 975.618 45.1919 Z" fill="#000000" fill-rule="nonzero" fill-opacity="1"></path><path clip-path="url(#clip740)" d="M990.485 27.2059 L997.939 27.2059 L997.939 72.576 L990.485 72.576 L990.485 27.2059 M990.485 9.54393 L997.939 9.54393 L997.939 18.9825 L990.485 18.9825 L990.485 9.54393 Z" fill="#000000" fill-rule="nonzero" fill-opacity="1"></path><path clip-path="url(#clip740)" d="M1051.25 45.1919 L1051.25 72.576 L1043.8 72.576 L1043.8 45.4349 Q1043.8 38.994 1041.28 35.7938 Q1038.77 32.5936 1033.75 32.5936 Q1027.71 32.5936 1024.23 36.4419 Q1020.75 40.2903 1020.75 46.9338 L1020.75 72.576 L1013.25 72.576 L1013.25 27.2059 L1020.75 27.2059 L1020.75 34.2544 Q1023.42 30.163 1027.02 28.1376 Q1030.67 26.1121 1035.41 26.1121 Q1043.23 26.1121 1047.24 30.9732 Q1051.25 35.7938 1051.25 45.1919 Z" fill="#000000" fill-rule="nonzero" fill-opacity="1"></path><path clip-path="url(#clip740)" d="M1095.97 49.3643 Q1095.97 41.2625 1092.61 36.8065 Q1089.29 32.3505 1083.25 32.3505 Q1077.26 32.3505 1073.89 36.8065 Q1070.57 41.2625 1070.57 49.3643 Q1070.57 57.4256 1073.89 61.8816 Q1077.26 66.3376 1083.25 66.3376 Q1089.29 66.3376 1092.61 61.8816 Q1095.97 57.4256 1095.97 49.3643 M1103.42 66.9452 Q1103.42 78.5308 1098.28 84.1616 Q1093.14 89.8329 1082.52 89.8329 Q1078.59 89.8329 1075.11 89.2252 Q1071.62 88.6581 1068.34 87.4428 L1068.34 80.1917 Q1071.62 81.9741 1074.82 82.8248 Q1078.03 83.6755 1081.35 83.6755 Q1088.68 83.6755 1092.32 79.8271 Q1095.97 76.0193 1095.97 68.282 L1095.97 64.5957 Q1093.66 68.6061 1090.06 70.5911 Q1086.45 72.576 1081.43 72.576 Q1073.08 72.576 1067.98 66.2161 Q1062.87 59.8562 1062.87 49.3643 Q1062.87 38.832 1067.98 32.472 Q1073.08 26.1121 1081.43 26.1121 Q1086.45 26.1121 1090.06 28.0971 Q1093.66 30.082 1095.97 34.0924 L1095.97 27.2059 L1103.42 27.2059 L1103.42 66.9452 Z" fill="#000000" fill-rule="nonzero" fill-opacity="1"></path><path clip-path="url(#clip740)" d="M1157.5 40.0472 Q1153.82 43.3285 1152.08 46.6097 Q1150.37 49.8504 1150.37 53.4152 Q1150.37 59.3295 1154.67 63.2589 Q1158.96 67.1883 1165.44 67.1883 Q1169.29 67.1883 1172.65 65.9325 Q1176.02 64.6362 1178.97 62.0436 L1157.5 40.0472 M1163.22 35.5102 L1183.79 56.5749 Q1186.18 52.9696 1187.52 48.8782 Q1188.86 44.7463 1189.1 40.1283 L1196.64 40.1283 Q1196.15 45.4755 1194.04 50.7011 Q1191.94 55.9268 1188.17 61.0309 L1199.47 72.576 L1189.26 72.576 L1183.47 66.6212 Q1179.26 70.2265 1174.64 72.0089 Q1170.02 73.7508 1164.71 73.7508 Q1154.95 73.7508 1148.75 68.201 Q1142.56 62.6108 1142.56 53.9013 Q1142.56 48.7162 1145.27 44.1792 Q1147.98 39.6016 1153.41 35.5912 Q1151.47 33.0392 1150.46 30.5276 Q1149.44 27.9755 1149.44 25.545 Q1149.44 18.9825 1153.94 15.0127 Q1158.44 11.0023 1165.89 11.0023 Q1169.25 11.0023 1172.57 11.7314 Q1175.94 12.4606 1179.38 13.9189 L1179.38 21.2916 Q1175.85 19.3876 1172.65 18.4154 Q1169.45 17.4027 1166.7 17.4027 Q1162.45 17.4027 1159.77 19.6712 Q1157.14 21.8992 1157.14 25.464 Q1157.14 27.5299 1158.31 29.6364 Q1159.53 31.7024 1163.22 35.5102 Z" fill="#000000" fill-rule="nonzero" fill-opacity="1"></path><path clip-path="url(#clip740)" d="M1230.87 27.2059 L1238.77 27.2059 L1252.94 65.2844 L1267.12 27.2059 L1275.02 27.2059 L1258.01 72.576 L1247.88 72.576 L1230.87 27.2059 Z" fill="#000000" fill-rule="nonzero" fill-opacity="1"></path><path clip-path="url(#clip740)" d="M1305.93 49.7694 Q1296.9 49.7694 1293.41 51.8354 Q1289.93 53.9013 1289.93 58.8839 Q1289.93 62.8538 1292.52 65.2034 Q1295.15 67.5124 1299.65 67.5124 Q1305.85 67.5124 1309.57 63.1374 Q1313.34 58.7219 1313.34 51.4303 L1313.34 49.7694 L1305.93 49.7694 M1320.8 46.6907 L1320.8 72.576 L1313.34 72.576 L1313.34 65.6895 Q1310.79 69.8214 1306.98 71.8063 Q1303.17 73.7508 1297.67 73.7508 Q1290.7 73.7508 1286.57 69.8619 Q1282.47 65.9325 1282.47 59.3701 Q1282.47 51.7138 1287.58 47.825 Q1292.72 43.9361 1302.89 43.9361 L1313.34 43.9361 L1313.34 43.2069 Q1313.34 38.0623 1309.94 35.2672 Q1306.58 32.4315 1300.46 32.4315 Q1296.57 32.4315 1292.89 33.3632 Q1289.2 34.295 1285.8 36.1584 L1285.8 29.2718 Q1289.89 27.692 1293.74 26.9223 Q1297.58 26.1121 1301.23 26.1121 Q1311.07 26.1121 1315.93 31.2163 Q1320.8 36.3204 1320.8 46.6907 Z" fill="#000000" fill-rule="nonzero" fill-opacity="1"></path><path clip-path="url(#clip740)" d="M1336.15 9.54393 L1343.6 9.54393 L1343.6 72.576 L1336.15 72.576 L1336.15 9.54393 Z" fill="#000000" fill-rule="nonzero" fill-opacity="1"></path><path clip-path="url(#clip740)" d="M1359.2 27.2059 L1366.65 27.2059 L1366.65 72.576 L1359.2 72.576 L1359.2 27.2059 M1359.2 9.54393 L1366.65 9.54393 L1366.65 18.9825 L1359.2 18.9825 L1359.2 9.54393 Z" fill="#000000" fill-rule="nonzero" fill-opacity="1"></path><path clip-path="url(#clip740)" d="M1412.1 34.0924 L1412.1 9.54393 L1419.56 9.54393 L1419.56 72.576 L1412.1 72.576 L1412.1 65.7705 Q1409.75 69.8214 1406.15 71.8063 Q1402.58 73.7508 1397.56 73.7508 Q1389.34 73.7508 1384.15 67.1883 Q1379.01 60.6258 1379.01 49.9314 Q1379.01 39.2371 1384.15 32.6746 Q1389.34 26.1121 1397.56 26.1121 Q1402.58 26.1121 1406.15 28.0971 Q1409.75 30.0415 1412.1 34.0924 M1386.7 49.9314 Q1386.7 58.1548 1390.07 62.8538 Q1393.47 67.5124 1399.38 67.5124 Q1405.3 67.5124 1408.7 62.8538 Q1412.1 58.1548 1412.1 49.9314 Q1412.1 41.7081 1408.7 37.0496 Q1405.3 32.3505 1399.38 32.3505 Q1393.47 32.3505 1390.07 37.0496 Q1386.7 41.7081 1386.7 49.9314 Z" fill="#000000" fill-rule="nonzero" fill-opacity="1"></path><path clip-path="url(#clip740)" d="M1455.53 49.7694 Q1446.5 49.7694 1443.01 51.8354 Q1439.53 53.9013 1439.53 58.8839 Q1439.53 62.8538 1442.12 65.2034 Q1444.75 67.5124 1449.25 67.5124 Q1455.45 67.5124 1459.17 63.1374 Q1462.94 58.7219 1462.94 51.4303 L1462.94 49.7694 L1455.53 49.7694 M1470.4 46.6907 L1470.4 72.576 L1462.94 72.576 L1462.94 65.6895 Q1460.39 69.8214 1456.58 71.8063 Q1452.77 73.7508 1447.27 73.7508 Q1440.3 73.7508 1436.17 69.8619 Q1432.07 65.9325 1432.07 59.3701 Q1432.07 51.7138 1437.18 47.825 Q1442.32 43.9361 1452.49 43.9361 L1462.94 43.9361 L1462.94 43.2069 Q1462.94 38.0623 1459.54 35.2672 Q1456.18 32.4315 1450.06 32.4315 Q1446.17 32.4315 1442.49 33.3632 Q1438.8 34.295 1435.4 36.1584 L1435.4 29.2718 Q1439.49 27.692 1443.34 26.9223 Q1447.18 26.1121 1450.83 26.1121 Q1460.67 26.1121 1465.53 31.2163 Q1470.4 36.3204 1470.4 46.6907 Z" fill="#000000" fill-rule="nonzero" fill-opacity="1"></path><path clip-path="url(#clip740)" d="M1493.12 14.324 L1493.12 27.2059 L1508.47 27.2059 L1508.47 32.9987 L1493.12 32.9987 L1493.12 57.6282 Q1493.12 63.1779 1494.62 64.7578 Q1496.16 66.3376 1500.82 66.3376 L1508.47 66.3376 L1508.47 72.576 L1500.82 72.576 Q1492.19 72.576 1488.91 69.3758 Q1485.63 66.1351 1485.63 57.6282 L1485.63 32.9987 L1480.16 32.9987 L1480.16 27.2059 L1485.63 27.2059 L1485.63 14.324 L1493.12 14.324 Z" fill="#000000" fill-rule="nonzero" fill-opacity="1"></path><path clip-path="url(#clip740)" d="M1518.28 27.2059 L1525.73 27.2059 L1525.73 72.576 L1518.28 72.576 L1518.28 27.2059 M1518.28 9.54393 L1525.73 9.54393 L1525.73 18.9825 L1518.28 18.9825 L1518.28 9.54393 Z" fill="#000000" fill-rule="nonzero" fill-opacity="1"></path><path clip-path="url(#clip740)" d="M1558.91 32.4315 Q1552.91 32.4315 1549.43 37.1306 Q1545.95 41.7891 1545.95 49.9314 Q1545.95 58.0738 1549.39 62.7728 Q1552.87 67.4314 1558.91 67.4314 Q1564.86 67.4314 1568.35 62.7323 Q1571.83 58.0333 1571.83 49.9314 Q1571.83 41.8701 1568.35 37.1711 Q1564.86 32.4315 1558.91 32.4315 M1558.91 26.1121 Q1568.63 26.1121 1574.18 32.4315 Q1579.73 38.7509 1579.73 49.9314 Q1579.73 61.0714 1574.18 67.4314 Q1568.63 73.7508 1558.91 73.7508 Q1549.15 73.7508 1543.6 67.4314 Q1538.09 61.0714 1538.09 49.9314 Q1538.09 38.7509 1543.6 32.4315 Q1549.15 26.1121 1558.91 26.1121 Z" fill="#000000" fill-rule="nonzero" fill-opacity="1"></path><path clip-path="url(#clip740)" d="M1629.8 45.1919 L1629.8 72.576 L1622.35 72.576 L1622.35 45.4349 Q1622.35 38.994 1619.83 35.7938 Q1617.32 32.5936 1612.3 32.5936 Q1606.26 32.5936 1602.78 36.4419 Q1599.3 40.2903 1599.3 46.9338 L1599.3 72.576 L1591.8 72.576 L1591.8 27.2059 L1599.3 27.2059 L1599.3 34.2544 Q1601.97 30.163 1605.57 28.1376 Q1609.22 26.1121 1613.96 26.1121 Q1621.78 26.1121 1625.79 30.9732 Q1629.8 35.7938 1629.8 45.1919 Z" fill="#000000" fill-rule="nonzero" fill-opacity="1"></path><path clip-path="url(#clip740)" d="M1671.04 9.54393 L1678.49 9.54393 L1678.49 72.576 L1671.04 72.576 L1671.04 9.54393 Z" fill="#000000" fill-rule="nonzero" fill-opacity="1"></path><path clip-path="url(#clip740)" d="M1711.67 32.4315 Q1705.67 32.4315 1702.19 37.1306 Q1698.7 41.7891 1698.7 49.9314 Q1698.7 58.0738 1702.15 62.7728 Q1705.63 67.4314 1711.67 67.4314 Q1717.62 67.4314 1721.11 62.7323 Q1724.59 58.0333 1724.59 49.9314 Q1724.59 41.8701 1721.11 37.1711 Q1717.62 32.4315 1711.67 32.4315 M1711.67 26.1121 Q1721.39 26.1121 1726.94 32.4315 Q1732.49 38.7509 1732.49 49.9314 Q1732.49 61.0714 1726.94 67.4314 Q1721.39 73.7508 1711.67 73.7508 Q1701.9 73.7508 1696.36 67.4314 Q1690.85 61.0714 1690.85 49.9314 Q1690.85 38.7509 1696.36 32.4315 Q1701.9 26.1121 1711.67 26.1121 Z" fill="#000000" fill-rule="nonzero" fill-opacity="1"></path><path clip-path="url(#clip740)" d="M1773.77 28.5427 L1773.77 35.5912 Q1770.61 33.9709 1767.21 33.1607 Q1763.8 32.3505 1760.16 32.3505 Q1754.61 32.3505 1751.81 34.0519 Q1749.06 35.7533 1749.06 39.156 Q1749.06 41.7486 1751.04 43.2475 Q1753.03 44.7058 1759.02 46.0426 L1761.57 46.6097 Q1769.51 48.3111 1772.84 51.4303 Q1776.2 54.509 1776.2 60.0587 Q1776.2 66.3781 1771.18 70.0644 Q1766.19 73.7508 1757.44 73.7508 Q1753.8 73.7508 1749.83 73.0216 Q1745.9 72.3329 1741.52 70.9151 L1741.52 63.2184 Q1745.65 65.3654 1749.67 66.4591 Q1753.68 67.5124 1757.6 67.5124 Q1762.87 67.5124 1765.71 65.73 Q1768.54 63.9071 1768.54 60.6258 Q1768.54 57.5877 1766.48 55.9673 Q1764.45 54.3469 1757.52 52.8481 L1754.93 52.2405 Q1748 50.7821 1744.93 47.7845 Q1741.85 44.7463 1741.85 39.4801 Q1741.85 33.0797 1746.38 29.5959 Q1750.92 26.1121 1759.27 26.1121 Q1763.4 26.1121 1767.04 26.7198 Q1770.69 27.3274 1773.77 28.5427 Z" fill="#000000" fill-rule="nonzero" fill-opacity="1"></path><path clip-path="url(#clip740)" d="M1816.99 28.5427 L1816.99 35.5912 Q1813.83 33.9709 1810.43 33.1607 Q1807.03 32.3505 1803.38 32.3505 Q1797.83 32.3505 1795.04 34.0519 Q1792.28 35.7533 1792.28 39.156 Q1792.28 41.7486 1794.27 43.2475 Q1796.25 44.7058 1802.25 46.0426 L1804.8 46.6097 Q1812.74 48.3111 1816.06 51.4303 Q1819.42 54.509 1819.42 60.0587 Q1819.42 66.3781 1814.4 70.0644 Q1809.42 73.7508 1800.67 73.7508 Q1797.02 73.7508 1793.05 73.0216 Q1789.12 72.3329 1784.75 70.9151 L1784.75 63.2184 Q1788.88 65.3654 1792.89 66.4591 Q1796.9 67.5124 1800.83 67.5124 Q1806.09 67.5124 1808.93 65.73 Q1811.77 63.9071 1811.77 60.6258 Q1811.77 57.5877 1809.7 55.9673 Q1807.67 54.3469 1800.75 52.8481 L1798.15 52.2405 Q1791.23 50.7821 1788.15 47.7845 Q1785.07 44.7463 1785.07 39.4801 Q1785.07 33.0797 1789.61 29.5959 Q1794.14 26.1121 1802.49 26.1121 Q1806.62 26.1121 1810.27 26.7198 Q1813.91 27.3274 1816.99 28.5427 Z" fill="#000000" fill-rule="nonzero" fill-opacity="1"></path><polyline clip-path="url(#clip742)" style="stroke:#0000ff; stroke-linecap:round; stroke-linejoin:round; stroke-width:12; stroke-opacity:1; fill:none" points="309.539,245.225 311.525,296.166 313.511,309.355 315.496,439.174 317.482,404.777 319.468,437.285 321.453,541.437 323.439,537.629 325.425,572.818 327.411,703.115 329.396,674.685 331.382,709.517 333.368,677.398 335.353,644.717 337.339,668.527 339.325,643.891 341.31,778.014 343.296,702.884 345.282,649.247 347.267,737.406 349.253,801.046 351.239,797.366 353.225,746.697 355.21,802.789 357.196,752.91 359.182,857.67 361.167,807.729 363.153,805.544 365.139,822.985 367.124,841.797 369.11,788.101 371.096,807.8 373.081,846.021 375.067,837.145 377.053,900.069 379.038,850.753 381.024,919.283 383.01,883.468 384.996,872.616 386.981,957.4 388.967,1026.01 390.953,882.143 392.938,840.551 394.924,901.638 396.91,944.935 398.895,1014.33 400.881,1002.91 402.867,1066.14 404.852,1014.55 406.838,938.008 408.824,948.042 410.81,956.806 412.795,1005.83 414.781,935.358 416.767,1003.57 418.752,1001.51 420.738,999.291 422.724,1008.46 424.709,1022.07 426.695,971.481 428.681,983.021 430.666,938.907 432.652,978.447 434.638,918.313 436.624,1050.84 438.609,964.481 440.595,949.97 442.581,901.4 444.566,911.111 446.552,1065.97 448.538,1014.77 450.523,949.924 452.509,980.226 454.495,1111.57 456.48,1045.03 458.466,950.775 460.452,1110.41 462.438,1046.95 464.423,1150.65 466.409,909.111 468.395,1055.92 470.38,1073.87 472.366,1092.9 474.352,1118.85 476.337,1113.46 478.323,1031.47 480.309,1178.55 482.294,1043.96 484.28,1087.91 486.266,1150.78 488.252,1069.56 490.237,1110.41 492.223,1150.04 494.209,1153.98 496.194,1129.85 498.18,1160.36 500.166,1194.44 502.151,1187.47 504.137,1189.49 506.123,1184.83 508.108,1161.21 510.094,1190.09 512.08,1167.33 514.065,1177.71 516.051,1102.31 518.037,1208.45 520.023,1163.8 522.008,1149.83 523.994,1146.26 525.98,1185.02 527.965,1140.7 529.951,1200.27 531.937,1237.52 533.922,1240.67 535.908,1198.42 537.894,1247.54 539.879,1225.75 541.865,1160.09 543.851,1141.98 545.837,1213.73 547.822,1221.15 549.808,1089.41 551.794,1167.8 553.779,1164.56 555.765,1276.33 557.751,1271 559.736,1227.8 561.722,1175.24 563.708,1224.65 565.693,1194.26 567.679,1249.51 569.665,1222.11 571.651,1266.28 573.636,1238.62 575.622,1234.15 577.608,1175.23 579.593,1268.25 581.579,1247.87 583.565,1272.82 585.55,1260.34 587.536,1272.16 589.522,1161.84 591.507,1252.53 593.493,1148.5 595.479,1158.87 597.465,1209.69 599.45,1246.97 601.436,1183.87 603.422,1085.54 605.407,1165.92 607.393,1183.35 609.379,1200.52 611.364,1274.08 613.35,1185.16 615.336,1234.92 617.321,1272.43 619.307,1190.64 621.293,1278.35 623.279,1172.2 625.264,1249.02 627.25,1332.6 629.236,1225.77 631.221,1203.13 633.207,1166.18 635.193,1275.13 637.178,1257.18 639.164,1250.86 641.15,1249.54 643.135,1297.7 645.121,1214.9 647.107,1238.2 649.092,1194.89 651.078,1150.6 653.064,1245 655.05,1207.92 657.035,1190.15 659.021,1232.48 661.007,1224.3 662.992,1189.71 664.978,1285.75 666.964,1254.44 668.949,1235.16 670.935,1207.76 672.921,1167.76 674.906,1243.66 676.892,1206.74 678.878,1277.27 680.864,1229.45 682.849,1288.17 684.835,1250.16 686.821,1240.03 688.806,1295.38 690.792,1212.27 692.778,1209.65 694.763,1251.71 696.749,1203.64 698.735,1279.9 700.72,1248.85 702.706,1275.02 704.692,1307.32 706.678,1299.77 708.663,1279.15 710.649,1318.22 712.635,1261.63 714.62,1285.25 716.606,1357.21 718.592,1233.97 720.577,1313.71 722.563,1310.46 724.549,1289.29 726.534,1269.86 728.52,1235.42 730.506,1199.52 732.492,1273.2 734.477,1245.68 736.463,1308.08 738.449,1296.5 740.434,1315.99 742.42,1241.87 744.406,1285.37 746.391,1324.88 748.377,1202.83 750.363,1308.98 752.348,1295.84 754.334,1307.3 756.32,1233.15 758.305,1230.37 760.291,1302.76 762.277,1246.13 764.263,1263.3 766.248,1294.02 768.234,1244.24 770.22,1353.3 772.205,1297.27 774.191,1190.19 776.177,1298.7 778.162,1274.05 780.148,1294.01 782.134,1324.31 784.119,1314.58 786.105,1319.52 788.091,1366.5 790.077,1307.83 792.062,1257.55 794.048,1201.59 796.034,1225.35 798.019,1280.54 800.005,1316.88 801.991,1212.33 803.976,1296.43 805.962,1310.55 807.948,1225.85 809.933,1361.83 811.919,1345.14 813.905,1336.35 815.891,1299.87 817.876,1217.54 819.862,1256.26 821.848,1217.85 823.833,1202.36 825.819,1289.8 827.805,1276.92 829.79,1255.91 831.776,1297.95 833.762,1287.28 835.747,1272.31 837.733,1327.69 839.719,1283.79 841.705,1288.07 843.69,1248.68 845.676,1273.14 847.662,1291.53 849.647,1305.36 851.633,1326.83 853.619,1316.14 855.604,1302.83 857.59,1276.98 859.576,1151.02 861.561,1304.13 863.547,1266.15 865.533,1283.27 867.519,1268.2 869.504,1256.93 871.49,1319.57 873.476,1299.11 875.461,1296.85 877.447,1317.5 879.433,1270.3 881.418,1232.96 883.404,1235.25 885.39,1275.29 887.375,1282.95 889.361,1277.41 891.347,1257.75 893.332,1327.54 895.318,1266.82 897.304,1322.68 899.29,1217.49 901.275,1275.23 903.261,1265.12 905.247,1288.42 907.232,1300.76 909.218,1273.6 911.204,1314.05 913.189,1311.87 915.175,1238.65 917.161,1257.3 919.146,1303.51 921.132,1346.93 923.118,1291.44 925.104,1210.53 927.089,1156.77 929.075,1217.87 931.061,1280.89 933.046,1222.77 935.032,1232.81 937.018,1268.33 939.003,1261.84 940.989,1340 942.975,1289.9 944.96,1308.4 946.946,1275.52 948.932,1337.4 950.918,1295.42 952.903,1274.24 954.889,1329.1 956.875,1280.71 958.86,1357.39 960.846,1315.99 962.832,1229.56 964.817,1317.97 966.803,1321.94 968.789,1308.09 970.774,1309.51 972.76,1185.37 974.746,1295.13 976.732,1279.12 978.717,1271.6 980.703,1258.86 982.689,1283.37 984.674,1321.48 986.66,1265.49 988.646,1236.73 990.631,1297.57 992.617,1280.4 994.603,1277.72 996.588,1301.7 998.574,1246.15 1000.56,1248.2 1002.55,1174.23 1004.53,1221.82 1006.52,1280.92 1008.5,1268.16 1010.49,1291.52 1012.47,1292.41 1014.46,1286.34 1016.45,1248.19 1018.43,1325.47 1020.42,1257.2 1022.4,1314.32 1024.39,1271.4 1026.37,1256.17 1028.36,1305.93 1030.35,1334.71 1032.33,1284.86 1034.32,1239.46 1036.3,1293.5 1038.29,1244.98 1040.27,1259.3 1042.26,1314.44 1044.25,1246.76 1046.23,1323.37 1048.22,1324.71 1050.2,1270.03 1052.19,1290.11 1054.17,1264.62 1056.16,1274.28 1058.14,1299.54 1060.13,1249.79 1062.12,1217.63 1064.1,1208.8 1066.09,1234.81 1068.07,1169.2 1070.06,1329.78 1072.04,1317.8 1074.03,1279.91 1076.02,1290.07 1078,1305.75 1079.99,1280.88 1081.97,1239.54 1083.96,1257.74 1085.94,1216.17 1087.93,1200.6 1089.92,1246.19 1091.9,1263.74 1093.89,1278 1095.87,1298.43 1097.86,1276.97 1099.84,1255.23 1101.83,1291.09 1103.82,1177.77 1105.8,1225.56 1107.79,1236.99 1109.77,1278.4 1111.76,1258.69 1113.74,1325.55 1115.73,1190.04 1117.72,1261.83 1119.7,1229.13 1121.69,1210.72 1123.67,1250.41 1125.66,1299.03 1127.64,1300.11 1129.63,1269.86 1131.62,1241.45 1133.6,1227 1135.59,1206.89 1137.57,1282.89 1139.56,1239.34 1141.54,1301.59 1143.53,1306.79 1145.52,1321.54 1147.5,1374.56 1149.49,1337.42 1151.47,1277.66 1153.46,1292.81 1155.44,1271.55 1157.43,1280.11 1159.42,1275.95 1161.4,1222.21 1163.39,1304.07 1165.37,1285.61 1167.36,1217.56 1169.34,1267.66 1171.33,1286.96 1173.31,1263.25 1175.3,1166.57 1177.29,1378.12 1179.27,1309.17 1181.26,1356.49 1183.24,1369.92 1185.23,1323.02 1187.21,1176.69 1189.2,1210.62 1191.19,1300.24 1193.17,1262.67 1195.16,1243.36 1197.14,1283.4 1199.13,1279.55 1201.11,1310.7 1203.1,1344.39 1205.09,1268.5 1207.07,1304.6 1209.06,1320.3 1211.04,1296.45 1213.03,1234.1 1215.01,1241.31 1217,1339.27 1218.99,1300.47 1220.97,1349.72 1222.96,1321.72 1224.94,1301.3 1226.93,1307.59 1228.91,1276.23 1230.9,1289.63 1232.89,1282.47 1234.87,1273.59 1236.86,1222.74 1238.84,1246.35 1240.83,1246.75 1242.81,1259.75 1244.8,1340.45 1246.79,1343.12 1248.77,1330.49 1250.76,1356.23 1252.74,1349.82 1254.73,1299.65 1256.71,1283.79 1258.7,1279.1 1260.69,1333.04 1262.67,1310.19 1264.66,1165.4 1266.64,1272.23 1268.63,1264.28 1270.61,1222 1272.6,1304.58 1274.59,1191.05 1276.57,1252.69 1278.56,1259.98 1280.54,1280.08 1282.53,1345.45 1284.51,1305.95 1286.5,1283.27 1288.49,1274.11 1290.47,1290.44 1292.46,1339.18 1294.44,1246.93 1296.43,1268.19 1298.41,1330.91 1300.4,1358.58 1302.38,1266.71 1304.37,1217.46 1306.36,1294.88 1308.34,1169.26 1310.33,1167.19 1312.31,1217.11 1314.3,1210.07 1316.28,1228.49 1318.27,1281.56 1320.26,1284.45 1322.24,1300.16 1324.23,1320.28 1326.21,1314 1328.2,1317.35 1330.18,1262.81 1332.17,1241.47 1334.16,1238.36 1336.14,1251.59 1338.13,1249 1340.11,1283.12 1342.1,1295.22 1344.08,1263.65 1346.07,1323.5 1348.06,1331.64 1350.04,1304.82 1352.03,1269.25 1354.01,1309.61 1356,1299.25 1357.98,1311.36 1359.97,1354.25 1361.96,1336.04 1363.94,1257.38 1365.93,1250.02 1367.91,1297.93 1369.9,1356.15 1371.88,1246.52 1373.87,1345.6 1375.86,1314.58 1377.84,1315.78 1379.83,1284.78 1381.81,1339.51 1383.8,1327.58 1385.78,1269.35 1387.77,1278.73 1389.76,1263.57 1391.74,1229.91 1393.73,1309.56 1395.71,1292.97 1397.7,1297.11 1399.68,1329.83 1401.67,1318.05 1403.66,1359.77 1405.64,1315.02 1407.63,1304.53 1409.61,1261.26 1411.6,1261.54 1413.58,1256.99 1415.57,1208.29 1417.55,1305.6 1419.54,1329.43 1421.53,1281.39 1423.51,1242.41 1425.5,1318.13 1427.48,1272.31 1429.47,1357.42 1431.45,1350.04 1433.44,1265.2 1435.43,1328.07 1437.41,1261.04 1439.4,1278.75 1441.38,1330.3 1443.37,1328.47 1445.35,1272.46 1447.34,1349.39 1449.33,1296.25 1451.31,1276.16 1453.3,1216.65 1455.28,1316.16 1457.27,1268.86 1459.25,1308.3 1461.24,1288.49 1463.23,1310.56 1465.21,1248.43 1467.2,1274.71 1469.18,1344.15 1471.17,1317.55 1473.15,1321.45 1475.14,1221.35 1477.13,1367.04 1479.11,1267.14 1481.1,1386.4 1483.08,1297.07 1485.07,1255.87 1487.05,1247.85 1489.04,1211.99 1491.03,1340.09 1493.01,1254.2 1495,1364.36 1496.98,1314.8 1498.97,1283.22 1500.95,1276.79 1502.94,1302.04 1504.93,1279.36 1506.91,1300.38 1508.9,1335.55 1510.88,1192.06 1512.87,1293.83 1514.85,1299.36 1516.84,1316.66 1518.83,1341.33 1520.81,1246.04 1522.8,1294.07 1524.78,1274.01 1526.77,1232.97 1528.75,1223.22 1530.74,1348.87 1532.73,1312.98 1534.71,1316.2 1536.7,1296.98 1538.68,1351.45 1540.67,1289.79 1542.65,1274.11 1544.64,1284.54 1546.62,1264.51 1548.61,1265.61 1550.6,1231.39 1552.58,1218.52 1554.57,1308.7 1556.55,1253.81 1558.54,1271.27 1560.52,1225.35 1562.51,1251.56 1564.5,1176.21 1566.48,1253.71 1568.47,1280.16 1570.45,1283.81 1572.44,1187.91 1574.42,1207.83 1576.41,1235.42 1578.4,1297.41 1580.38,1316.13 1582.37,1225.1 1584.35,1268.57 1586.34,1271.79 1588.32,1250.94 1590.31,1188.5 1592.3,1251.61 1594.28,1258.69 1596.27,1242.15 1598.25,1262.41 1600.24,1256.88 1602.22,1268.37 1604.21,1284.87 1606.2,1173.75 1608.18,1171.94 1610.17,1209.03 1612.15,1235.5 1614.14,1204.17 1616.12,1278.23 1618.11,1239.23 1620.1,1281.7 1622.08,1268.45 1624.07,1281.44 1626.05,1254.23 1628.04,1300.86 1630.02,1274.97 1632.01,1218.66 1634,1224.46 1635.98,1303.07 1637.97,1147.75 1639.95,1295.69 1641.94,1335.2 1643.92,1346.17 1645.91,1326.12 1647.9,1283.9 1649.88,1232.25 1651.87,1321.44 1653.85,1267.06 1655.84,1335.11 1657.82,1327.64 1659.81,1290.19 1661.79,1318.82 1663.78,1324.15 1665.77,1276.19 1667.75,1280.17 1669.74,1312.81 1671.72,1255.49 1673.71,1288.04 1675.69,1214.98 1677.68,1285.8 1679.67,1258.68 1681.65,1260.6 1683.64,1237.71 1685.62,1286.01 1687.61,1280.65 1689.59,1249.81 1691.58,1265.43 1693.57,1265.19 1695.55,1251.44 1697.54,1246.73 1699.52,1199.33 1701.51,1254.5 1703.49,1235.56 1705.48,1254.21 1707.47,1133.16 1709.45,1178.32 1711.44,1297.03 1713.42,1229.64 1715.41,1184.1 1717.39,1205.72 1719.38,1305.88 1721.37,1283.57 1723.35,1226.41 1725.34,1276.6 1727.32,1293.6 1729.31,1313.85 1731.29,1286.77 1733.28,1301.16 1735.27,1250.36 1737.25,1307.17 1739.24,1312.6 1741.22,1312.01 1743.21,1246.15 1745.19,1310.47 1747.18,1266.5 1749.17,1283.11 1751.15,1237.37 1753.14,1222.95 1755.12,1273.36 1757.11,1240.06 1759.09,1326.43 1761.08,1243.6 1763.07,1302.59 1765.05,1334.87 1767.04,1332.41 1769.02,1296.98 1771.01,1295.18 1772.99,1308.63 1774.98,1291.03 1776.97,1204.6 1778.95,1177.27 1780.94,1191.06 1782.92,1269.72 1784.91,1238.09 1786.89,1230.35 1788.88,1263.59 1790.86,1265.9 1792.85,1260.93 1794.84,1249.79 1796.82,1250.02 1798.81,1323.38 1800.79,1285.56 1802.78,1288.89 1804.76,1249.12 1806.75,1285.56 1808.74,1300.85 1810.72,1295.11 1812.71,1240.25 1814.69,1283.19 1816.68,1316.12 1818.66,1322.37 1820.65,1222.94 1822.64,1275.42 1824.62,1252.21 1826.61,1258.98 1828.59,1134.19 1830.58,1270.42 1832.56,1268.6 1834.55,1265.24 1836.54,1252.73 1838.52,1197.94 1840.51,1258.66 1842.49,1245.88 1844.48,1310.01 1846.46,1216.24 1848.45,1267.56 1850.44,1237.27 1852.42,1242.14 1854.41,1250.23 1856.39,1167.53 1858.38,1226.82 1860.36,1301.05 1862.35,1230.49 1864.34,1303.49 1866.32,1243.15 1868.31,1254.23 1870.29,1174.67 1872.28,1256.3 1874.26,1233.94 1876.25,1298.09 1878.24,1285.12 1880.22,1273.11 1882.21,1254.27 1884.19,1220.8 1886.18,1293.26 1888.16,1298.6 1890.15,1303.88 1892.14,1215.78 1894.12,1155.74 1896.11,1210.56 1898.09,1278.33 1900.08,1259.84 1902.06,1231.08 1904.05,1290.34 1906.03,1259.03 1908.02,1244.31 1910.01,1209.11 1911.99,1282.78 1913.98,1299.46 1915.96,1186.19 1917.95,1263.79 1919.93,1299.13 1921.92,1254.39 1923.91,1295.06 1925.89,1307.78 1927.88,1312.01 1929.86,1287.92 1931.85,1311.46 1933.83,1326.19 1935.82,1378.47 1937.81,1308.52 1939.79,1360.18 1941.78,1220.84 1943.76,1212.19 1945.75,1216.28 1947.73,1278.86 1949.72,1221.91 1951.71,1253.18 1953.69,1222.35 1955.68,1183.69 1957.66,1225.83 1959.65,1228.94 1961.63,1305.02 1963.62,1350.2 1965.61,1310.73 1967.59,1278.61 1969.58,1299.7 1971.56,1258.38 1973.55,1229.68 1975.53,1204.04 1977.52,1272.96 1979.51,1262.82 1981.49,1272.54 1983.48,1201.97 1985.46,1215 1987.45,1195.25 1989.43,1200.72 1991.42,1264.21 1993.41,1321.86 1995.39,1269.62 1997.38,1240.13 1999.36,1232.71 2001.35,1311.48 2003.33,1254.36 2005.32,1309.45 2007.31,1333.61 2009.29,1323.07 2011.28,1262.57 2013.26,1249.38 2015.25,1291.77 2017.23,1207.93 2019.22,1209.67 2021.21,1236.08 2023.19,1278.29 2025.18,1323.57 2027.16,1299.67 2029.15,1258.39 2031.13,1274.35 2033.12,1296.87 2035.1,1306.13 2037.09,1257.49 2039.08,1248.13 2041.06,1307.4 2043.05,1323.74 2045.03,1329.46 2047.02,1313.66 2049,1341.94 2050.99,1318.79 2052.98,1295.91 2054.96,1309.43 2056.95,1288.84 2058.93,1292.29 2060.92,1320.64 2062.9,1266.65 2064.89,1278.33 2066.88,1232.61 2068.86,1297.76 2070.85,1340.37 2072.83,1224.85 2074.82,1251.49 2076.8,1282.81 2078.79,1256.93 2080.78,1239.17 2082.76,1309.77 2084.75,1292.38 2086.73,1262.83 2088.72,1335.17 2090.7,1293.61 2092.69,1285.29 2094.68,1235.72 2096.66,1264.53 2098.65,1320.71 2100.63,1329.26 2102.62,1354.26 2104.6,1293.71 2106.59,1309.33 2108.58,1364.96 2110.56,1337.21 2112.55,1327.56 2114.53,1307.05 2116.52,1222.06 2118.5,1262.32 2120.49,1303.49 2122.48,1275.48 2124.46,1230.99 2126.45,1284.18 2128.43,1384.05 2130.42,1292.35 2132.4,1333.36 2134.39,1308.87 2136.38,1277.11 2138.36,1319.67 2140.35,1306.19 2142.33,1320.84 2144.32,1303.92 2146.3,1325.23 2148.29,1309.89 2150.27,1332.55 2152.26,1228.17 2154.25,1298.06 2156.23,1300.49 2158.22,1298.48 2160.2,1301.8 2162.19,1220.74 2164.17,1272.23 2166.16,1341.93 2168.15,1353.99 2170.13,1250.63 2172.12,1207.76 2174.1,1261.8 2176.09,1299.24 2178.07,1238.52 2180.06,1302.28 2182.05,1247.04 2184.03,1316.81 2186.02,1327.8 2188,1344.3 2189.99,1310.82 2191.97,1373.26 2193.96,1303.97 2195.95,1348.86 2197.93,1258.13 2199.92,1288.4 2201.9,1332.65 2203.89,1336.07 2205.87,1328.84 2207.86,1269.78 2209.85,1292.78 2211.83,1296.27 2213.82,1283.98 2215.8,1366.9 2217.79,1213.06 2219.77,1252.53 2221.76,1260.71 2223.75,1349.93 2225.73,1222.82 2227.72,1241.12 2229.7,1289.49 2231.69,1212.02 2233.67,1257.43 2235.66,1250.14 2237.65,1233.25 2239.63,1225 2241.62,1257.05 2243.6,1342.61 2245.59,1254.46 2247.57,1188.6 2249.56,1247.02 2251.55,1187.98 2253.53,1251.21 2255.52,1264.35 2257.5,1177.71 2259.49,1265.08 2261.47,1232.06 2263.46,1307.95 2265.45,1296.51 2267.43,1226.52 2269.42,1272.76 2271.4,1312.12 2273.39,1325.2 2275.37,1333.52 2277.36,1168.16 2279.34,1174.05 2281.33,1213.16 2283.32,1330.49 2285.3,1251.89 2287.29,1299.88 2289.27,1253.62 2291.26,1288.85 2293.24,1277.72 "></polyline>
<polyline clip-path="url(#clip742)" style="stroke:#ffa500; stroke-linecap:round; stroke-linejoin:round; stroke-width:12; stroke-opacity:1; fill:none" points="309.539,160.256 311.525,275.356 313.511,314.433 315.496,377.192 317.482,420.582 319.468,440.854 321.453,470.264 323.439,486.803 325.425,497.162 327.411,498.757 329.396,520.516 331.382,525.28 333.368,528.772 335.353,519.217 337.339,544.455 339.325,541.14 341.31,548.191 343.296,531.703 345.282,542.995 347.267,552.023 349.253,542.594 351.239,552.84 353.225,548.766 355.21,569.868 357.196,551.53 359.182,552.114 361.167,572.516 363.153,555.43 365.139,565.55 367.124,565.061 369.11,569.488 371.096,573.293 373.081,570.022 375.067,578.386 377.053,579.922 379.038,571.001 381.024,584.323 383.01,572.528 384.996,560.16 386.981,576.129 388.967,574.208 390.953,569.895 392.938,581.632 394.924,572.544 396.91,591.783 398.895,593.522 400.881,594.3 402.867,585.449 404.852,585.444 406.838,578.779 408.824,579.671 410.81,591.672 412.795,579.045 414.781,571.8 416.767,583.517 418.752,580.725 420.738,577.246 422.724,580.27 424.709,592.696 426.695,576.01 428.681,581.952 430.666,586.856 432.652,588.045 434.638,579.935 436.624,588.344 438.609,587.574 440.595,585.673 442.581,582.271 444.566,579.393 446.552,581.854 448.538,578.246 450.523,581.784 452.509,571.532 454.495,573.501 456.48,582.096 458.466,581.48 460.452,570.323 462.438,585.025 464.423,585.648 466.409,576.089 468.395,584.879 470.38,579.951 472.366,587.599 474.352,584.107 476.337,591.734 478.323,596.47 480.309,573.093 482.294,581.691 484.28,574.546 486.266,564.416 488.252,575.41 490.237,586.526 492.223,578.355 494.209,582.175 496.194,579.021 498.18,554.858 500.166,576.015 502.151,576.709 504.137,585.788 506.123,575.909 508.108,583.95 510.094,574.017 512.08,576.73 514.065,571.317 516.051,572.985 518.037,581.239 520.023,582.507 522.008,577.912 523.994,589.765 525.98,579.876 527.965,579.88 529.951,581.65 531.937,584.176 533.922,588.458 535.908,581.103 537.894,584.135 539.879,587.548 541.865,589.311 543.851,567.856 545.837,575.916 547.822,583.594 549.808,576.125 551.794,584.971 553.779,585.558 555.765,589.482 557.751,583.631 559.736,591.258 561.722,589.995 563.708,586.52 565.693,587.364 567.679,586.759 569.665,587.177 571.651,580.107 573.636,579.467 575.622,577.139 577.608,567.369 579.593,575.151 581.579,580.833 583.565,582.73 585.55,579.878 587.536,577.832 589.522,575.407 591.507,583.299 593.493,582.189 595.479,575.61 597.465,569.2 599.45,571.418 601.436,578.456 603.422,565.934 605.407,582.8 607.393,586.992 609.379,592.854 611.364,590.321 613.35,578.998 615.336,582.457 617.321,588.664 619.307,589.081 621.293,578.082 623.279,587.792 625.264,580.431 627.25,586.783 629.236,584.096 631.221,575.675 633.207,559.903 635.193,576.738 637.178,577.756 639.164,582.437 641.15,582.293 643.135,579.268 645.121,582.996 647.107,584.046 649.092,573.397 651.078,576.686 653.064,568.541 655.05,576.904 657.035,569.639 659.021,580.104 661.007,584.819 662.992,578.026 664.978,573.288 666.964,565.453 668.949,575.194 670.935,576.546 672.921,569.597 674.906,578.633 676.892,566.792 678.878,569.984 680.864,566.785 682.849,577.44 684.835,572.619 686.821,572.387 688.806,577.167 690.792,570.753 692.778,576.129 694.763,569.047 696.749,563.531 698.735,573.038 700.72,571.373 702.706,575.694 704.692,572.636 706.678,570.789 708.663,582.129 710.649,569.529 712.635,572.928 714.62,566.81 716.606,582.984 718.592,566.227 720.577,572.349 722.563,570.317 724.549,578.471 726.534,579.014 728.52,570.62 730.506,578.137 732.492,573.865 734.477,577.161 736.463,569.835 738.449,563.105 740.434,568.895 742.42,569.93 744.406,576.039 746.391,567.457 748.377,575.206 750.363,579.259 752.348,578.205 754.334,574.397 756.32,565.955 758.305,565.044 760.291,579.798 762.277,568.3 764.263,563.21 766.248,569.489 768.234,569.251 770.22,569.579 772.205,575.139 774.191,558.934 776.177,576.082 778.162,571.737 780.148,571.361 782.134,566.334 784.119,567.509 786.105,568.174 788.091,572.505 790.077,573.189 792.062,568.595 794.048,570.414 796.034,572.477 798.019,565.901 800.005,570.029 801.991,560.621 803.976,561.159 805.962,557.008 807.948,563.318 809.933,560.184 811.919,572.991 813.905,578.425 815.891,566.732 817.876,564.185 819.862,570.913 821.848,570.813 823.833,562.996 825.819,564.025 827.805,569.768 829.79,564.334 831.776,551.467 833.762,569.496 835.747,560.66 837.733,568.454 839.719,569.116 841.705,570.688 843.69,559.071 845.676,569.87 847.662,568.016 849.647,565.677 851.633,569.291 853.619,572.236 855.604,576.336 857.59,571.159 859.576,567.358 861.561,567.527 863.547,573.178 865.533,563.279 867.519,561.396 869.504,566.94 871.49,569.751 873.476,573.311 875.461,561.724 877.447,566.053 879.433,558.97 881.418,562.843 883.404,562.754 885.39,558.621 887.375,570.087 889.361,567.377 891.347,563.329 893.332,570.509 895.318,565.697 897.304,556.995 899.29,560.611 901.275,562.393 903.261,551.407 905.247,562.21 907.232,569.444 909.218,566.832 911.204,564.225 913.189,566.229 915.175,559.478 917.161,567.593 919.146,568.926 921.132,565.515 923.118,561.003 925.104,567.78 927.089,573.939 929.075,564.034 931.061,570.143 933.046,565.102 935.032,557.303 937.018,570.503 939.003,563.219 940.989,566.275 942.975,563.738 944.96,562.035 946.946,554.825 948.932,555.67 950.918,561.501 952.903,558.308 954.889,566.26 956.875,566.128 958.86,572.41 960.846,559.592 962.832,556.533 964.817,562.028 966.803,554.396 968.789,558.49 970.774,563.266 972.76,567.855 974.746,561.019 976.732,570.295 978.717,564.526 980.703,568.095 982.689,561.314 984.674,568.169 986.66,563.746 988.646,564.231 990.631,564.837 992.617,557.455 994.603,560.027 996.588,563.939 998.574,558.406 1000.56,568.134 1002.55,562.467 1004.53,555.94 1006.52,560.863 1008.5,557.016 1010.49,553.351 1012.47,560.91 1014.46,561.571 1016.45,556.979 1018.43,551.399 1020.42,562.897 1022.4,565.44 1024.39,570.33 1026.37,566.31 1028.36,564.57 1030.35,564.665 1032.33,563.592 1034.32,557.235 1036.3,566.303 1038.29,555.44 1040.27,565.069 1042.26,569.874 1044.25,566.253 1046.23,571.736 1048.22,569.707 1050.2,566.621 1052.19,566.156 1054.17,573.054 1056.16,563.185 1058.14,574.427 1060.13,566.846 1062.12,560.326 1064.1,559.472 1066.09,563.668 1068.07,561.829 1070.06,559.416 1072.04,567.536 1074.03,564.437 1076.02,567.205 1078,564.554 1079.99,563.911 1081.97,562.328 1083.96,552.15 1085.94,562.878 1087.93,561.677 1089.92,561.994 1091.9,551.608 1093.89,562.139 1095.87,571.499 1097.86,569.852 1099.84,563.965 1101.83,554.352 1103.82,561.271 1105.8,560.069 1107.79,565.625 1109.77,563.179 1111.76,564.638 1113.74,566.572 1115.73,562.297 1117.72,558.869 1119.7,565.155 1121.69,565.766 1123.67,553.811 1125.66,563.977 1127.64,570.196 1129.63,556.858 1131.62,560.587 1133.6,560.698 1135.59,555.831 1137.57,558.609 1139.56,547.168 1141.54,557.633 1143.53,560.705 1145.52,566.219 1147.5,559.458 1149.49,556.27 1151.47,563.979 1153.46,559.541 1155.44,556.341 1157.43,562.982 1159.42,561.122 1161.4,567.995 1163.39,559.507 1165.37,546.976 1167.36,563.06 1169.34,566.147 1171.33,558.823 1173.31,568.772 1175.3,554.392 1177.29,561.713 1179.27,569.182 1181.26,567.507 1183.24,563.254 1185.23,564.397 1187.21,556.74 1189.2,556.39 1191.19,563.408 1193.17,557.181 1195.16,565.037 1197.14,564.083 1199.13,558.445 1201.11,558.584 1203.1,561.237 1205.09,561.392 1207.07,559.401 1209.06,555.426 1211.04,564.307 1213.03,557.398 1215.01,559.759 1217,564.821 1218.99,558.1 1220.97,555.994 1222.96,552.406 1224.94,552.492 1226.93,556.901 1228.91,564.617 1230.9,559.777 1232.89,559.557 1234.87,558.215 1236.86,552.225 1238.84,563.637 1240.83,556.265 1242.81,569.176 1244.8,554.635 1246.79,557.722 1248.77,563.709 1250.76,558.106 1252.74,563.298 1254.73,555.586 1256.71,553.637 1258.7,551.541 1260.69,558.947 1262.67,555.98 1264.66,562.397 1266.64,566.491 1268.63,563.368 1270.61,552.3 1272.6,558.039 1274.59,553.943 1276.57,562.462 1278.56,563.747 1280.54,568.134 1282.53,559.737 1284.51,564.263 1286.5,560.071 1288.49,564.936 1290.47,558.821 1292.46,555.809 1294.44,553.602 1296.43,558.07 1298.41,550.286 1300.4,549.933 1302.38,568.777 1304.37,562.993 1306.36,559.341 1308.34,567.102 1310.33,558.046 1312.31,557.097 1314.3,557.435 1316.28,560.722 1318.27,554.899 1320.26,555.229 1322.24,567.441 1324.23,557.962 1326.21,554.993 1328.2,546.094 1330.18,562.172 1332.17,559.985 1334.16,547.223 1336.14,549.597 1338.13,552.704 1340.11,552.853 1342.1,556.772 1344.08,562.443 1346.07,560.813 1348.06,556.162 1350.04,558.195 1352.03,560.734 1354.01,552.013 1356,553.493 1357.98,542.917 1359.97,553.565 1361.96,549.804 1363.94,545.914 1365.93,556.525 1367.91,551.555 1369.9,553.989 1371.88,560.213 1373.87,551.335 1375.86,552.767 1377.84,556.06 1379.83,554.194 1381.81,556.383 1383.8,560.34 1385.78,559.714 1387.77,555.297 1389.76,559.51 1391.74,546.404 1393.73,559.932 1395.71,556.17 1397.7,552.739 1399.68,550.174 1401.67,552.993 1403.66,550.483 1405.64,557.229 1407.63,553.546 1409.61,547.715 1411.6,556.879 1413.58,555.73 1415.57,558.973 1417.55,557.422 1419.54,552.403 1421.53,553.488 1423.51,550.879 1425.5,549.836 1427.48,552.738 1429.47,550.011 1431.45,554.732 1433.44,555.84 1435.43,552.8 1437.41,554.556 1439.4,556.47 1441.38,561.389 1443.37,547.485 1445.35,555.649 1447.34,562.889 1449.33,546.118 1451.31,552.331 1453.3,542.435 1455.28,549.088 1457.27,549.545 1459.25,549.247 1461.24,548.268 1463.23,555.12 1465.21,558.634 1467.2,553.365 1469.18,546.484 1471.17,554.316 1473.15,553.594 1475.14,555.872 1477.13,541.879 1479.11,541.85 1481.1,551.842 1483.08,548.346 1485.07,555.039 1487.05,548.6 1489.04,550.856 1491.03,540.627 1493.01,552.143 1495,548.511 1496.98,546.452 1498.97,551.838 1500.95,550.732 1502.94,545.217 1504.93,543.938 1506.91,545.258 1508.9,558.024 1510.88,548.232 1512.87,544.907 1514.85,557.918 1516.84,549.075 1518.83,554.654 1520.81,553.475 1522.8,554.047 1524.78,553.114 1526.77,543.633 1528.75,548.061 1530.74,555.994 1532.73,551.372 1534.71,549.873 1536.7,558.731 1538.68,555.827 1540.67,555.801 1542.65,541.658 1544.64,554.011 1546.62,541.786 1548.61,555.723 1550.6,545.127 1552.58,546.095 1554.57,553.649 1556.55,542.512 1558.54,551.635 1560.52,546.817 1562.51,548.386 1564.5,550.305 1566.48,544.404 1568.47,551.257 1570.45,558.111 1572.44,548.552 1574.42,549.919 1576.41,553.72 1578.4,552.012 1580.38,553.298 1582.37,551.685 1584.35,549.745 1586.34,554.048 1588.32,549.05 1590.31,543.252 1592.3,550.215 1594.28,550.793 1596.27,552.996 1598.25,561.427 1600.24,547.336 1602.22,552.099 1604.21,554.631 1606.2,550.582 1608.18,552.757 1610.17,550.709 1612.15,554.44 1614.14,546.237 1616.12,557.322 1618.11,558.728 1620.1,550.801 1622.08,551.259 1624.07,554.373 1626.05,551.583 1628.04,547.565 1630.02,555.044 1632.01,551.133 1634,552.029 1635.98,554.342 1637.97,558.257 1639.95,551.336 1641.94,555.904 1643.92,543.169 1645.91,550.904 1647.9,555.734 1649.88,551.602 1651.87,553.125 1653.85,553.583 1655.84,546.312 1657.82,557.861 1659.81,545.759 1661.79,557.995 1663.78,553.435 1665.77,559.296 1667.75,556.914 1669.74,549.502 1671.72,553.272 1673.71,555.629 1675.69,542.315 1677.68,551.823 1679.67,552.935 1681.65,555.29 1683.64,551.871 1685.62,555.421 1687.61,553.07 1689.59,552.994 1691.58,555.581 1693.57,549.949 1695.55,551.955 1697.54,555.049 1699.52,553.515 1701.51,551.433 1703.49,548.648 1705.48,556.647 1707.47,552.86 1709.45,558.621 1711.44,559.885 1713.42,543.641 1715.41,550.794 1717.39,552.361 1719.38,561.722 1721.37,547.019 1723.35,560.97 1725.34,555.077 1727.32,552.414 1729.31,554.479 1731.29,561.047 1733.28,555.876 1735.27,552.638 1737.25,558.062 1739.24,553.02 1741.22,560.012 1743.21,550.35 1745.19,550.503 1747.18,553.623 1749.17,554.948 1751.15,551.499 1753.14,548.286 1755.12,556.791 1757.11,548.477 1759.09,552.717 1761.08,548.173 1763.07,551.139 1765.05,554.575 1767.04,546.069 1769.02,551.613 1771.01,550.779 1772.99,546.044 1774.98,541.7 1776.97,558.432 1778.95,545.756 1780.94,544.633 1782.92,547.435 1784.91,555.154 1786.89,547.043 1788.88,550.371 1790.86,550.136 1792.85,551.129 1794.84,548.959 1796.82,548.516 1798.81,543.483 1800.79,553.758 1802.78,554.386 1804.76,549.419 1806.75,539.298 1808.74,553.085 1810.72,547.446 1812.71,553 1814.69,552.669 1816.68,561.113 1818.66,559.19 1820.65,539.359 1822.64,548.604 1824.62,554.331 1826.61,550.493 1828.59,555.369 1830.58,548.027 1832.56,557.706 1834.55,552.086 1836.54,547.93 1838.52,549.251 1840.51,551.788 1842.49,550.767 1844.48,552.881 1846.46,557.748 1848.45,559.035 1850.44,556.228 1852.42,562.62 1854.41,554.536 1856.39,555.956 1858.38,562.057 1860.36,556.418 1862.35,558.208 1864.34,557.762 1866.32,557.637 1868.31,549.45 1870.29,558.191 1872.28,554.571 1874.26,556.302 1876.25,553.573 1878.24,553.733 1880.22,559.121 1882.21,551.485 1884.19,543.562 1886.18,546.873 1888.16,548.371 1890.15,556.947 1892.14,552.573 1894.12,555.579 1896.11,550.413 1898.09,556.709 1900.08,558.356 1902.06,553.897 1904.05,550.575 1906.03,551.737 1908.02,557.712 1910.01,559.63 1911.99,554.873 1913.98,551.137 1915.96,557.239 1917.95,549.836 1919.93,555.126 1921.92,551.143 1923.91,550.509 1925.89,550.013 1927.88,555.791 1929.86,554.073 1931.85,562.949 1933.83,559.382 1935.82,554.422 1937.81,544.084 1939.79,545.258 1941.78,549.207 1943.76,552.523 1945.75,554.211 1947.73,555.02 1949.72,550.691 1951.71,545.965 1953.69,552.565 1955.68,551.725 1957.66,538.908 1959.65,553.659 1961.63,551.841 1963.62,553.047 1965.61,553.29 1967.59,548.652 1969.58,550.955 1971.56,546.61 1973.55,548.832 1975.53,540.823 1977.52,552.581 1979.51,558.813 1981.49,546.698 1983.48,545.56 1985.46,549.524 1987.45,548.781 1989.43,549.93 1991.42,550.423 1993.41,547.884 1995.39,548.777 1997.38,539.028 1999.36,548.935 2001.35,550.144 2003.33,546.802 2005.32,550.001 2007.31,556.879 2009.29,562.191 2011.28,552.551 2013.26,561.903 2015.25,549.477 2017.23,536.974 2019.22,549.52 2021.21,545.184 2023.19,547.48 2025.18,540.415 2027.16,548.592 2029.15,551.932 2031.13,547.289 2033.12,535.39 2035.1,541.516 2037.09,552.189 2039.08,546.398 2041.06,548.121 2043.05,550.781 2045.03,539.185 2047.02,551.688 2049,546.314 2050.99,548.62 2052.98,556.501 2054.96,546.201 2056.95,539.314 2058.93,549.215 2060.92,559.998 2062.9,544.728 2064.89,547.066 2066.88,542.082 2068.86,558.11 2070.85,552.683 2072.83,554.561 2074.82,548.561 2076.8,554.215 2078.79,554.065 2080.78,559.749 2082.76,557.715 2084.75,549.011 2086.73,549.137 2088.72,549.336 2090.7,549.794 2092.69,550.354 2094.68,554.601 2096.66,552.645 2098.65,550.259 2100.63,553.229 2102.62,549.788 2104.6,556.223 2106.59,548.381 2108.58,551.099 2110.56,552.747 2112.55,554.741 2114.53,547.856 2116.52,544.634 2118.5,549.836 2120.49,550.341 2122.48,553.326 2124.46,542.388 2126.45,546.154 2128.43,555.804 2130.42,547.741 2132.4,541.722 2134.39,544.091 2136.38,548.698 2138.36,553.594 2140.35,542.505 2142.33,548.173 2144.32,549.818 2146.3,549.464 2148.29,553.405 2150.27,549.245 2152.26,546.746 2154.25,544.203 2156.23,539.662 2158.22,551.686 2160.2,552.186 2162.19,551.75 2164.17,544.123 2166.16,546.39 2168.15,543.935 2170.13,545.284 2172.12,546.998 2174.1,556.909 2176.09,547.92 2178.07,555.478 2180.06,550.279 2182.05,545.919 2184.03,548.354 2186.02,551.143 2188,547.047 2189.99,548.696 2191.97,548.257 2193.96,547.489 2195.95,549.808 2197.93,541.9 2199.92,541.495 2201.9,555.667 2203.89,553.871 2205.87,541.442 2207.86,549.711 2209.85,546.614 2211.83,550.527 2213.82,547.631 2215.8,549.649 2217.79,547.812 2219.77,549.688 2221.76,547.537 2223.75,555.298 2225.73,544.316 2227.72,553.536 2229.7,552.162 2231.69,543.478 2233.67,545.651 2235.66,545.117 2237.65,553.487 2239.63,558.042 2241.62,543.26 2243.6,546.024 2245.59,540.88 2247.57,547.324 2249.56,552.499 2251.55,536.713 2253.53,545.695 2255.52,546.131 2257.5,536.089 2259.49,556.252 2261.47,550.293 2263.46,537.066 2265.45,555.046 2267.43,553.293 2269.42,554.054 2271.4,554.906 2273.39,547.739 2275.37,548.601 2277.36,554.222 2279.34,546.156 2281.33,555.117 2283.32,557.794 2285.3,544.642 2287.29,550.016 2289.27,547.034 2291.26,554.756 2293.24,549.73 "></polyline>
<path clip-path="url(#clip740)" d="M1734.34 322.316 L2282.66 322.316 L2282.66 166.796 L1734.34 166.796  Z" fill="#ffffff" fill-rule="evenodd" fill-opacity="1"></path>
<polyline clip-path="url(#clip740)" style="stroke:#000000; stroke-linecap:round; stroke-linejoin:round; stroke-width:4; stroke-opacity:1; fill:none" points="1734.34,322.316 2282.66,322.316 2282.66,166.796 1734.34,166.796 1734.34,322.316 "></polyline>
<polyline clip-path="url(#clip740)" style="stroke:#0000ff; stroke-linecap:round; stroke-linejoin:round; stroke-width:12; stroke-opacity:1; fill:none" points="1757.7,218.636 1897.88,218.636 "></polyline>
<path clip-path="url(#clip740)" d="M1921.25 201.356 L1950.48 201.356 L1950.48 205.291 L1938.22 205.291 L1938.22 235.916 L1933.52 235.916 L1933.52 205.291 L1921.25 205.291 L1921.25 201.356 Z" fill="#000000" fill-rule="nonzero" fill-opacity="1"></path><path clip-path="url(#clip740)" d="M1962.87 213.971 Q1962.15 213.555 1961.29 213.37 Q1960.46 213.161 1959.44 213.161 Q1955.83 213.161 1953.89 215.522 Q1951.97 217.86 1951.97 222.258 L1951.97 235.916 L1947.68 235.916 L1947.68 209.99 L1951.97 209.99 L1951.97 214.018 Q1953.31 211.657 1955.46 210.522 Q1957.61 209.365 1960.69 209.365 Q1961.13 209.365 1961.66 209.434 Q1962.2 209.481 1962.84 209.596 L1962.87 213.971 Z" fill="#000000" fill-rule="nonzero" fill-opacity="1"></path><path clip-path="url(#clip740)" d="M1979.12 222.883 Q1973.96 222.883 1971.96 224.064 Q1969.97 225.244 1969.97 228.092 Q1969.97 230.36 1971.46 231.703 Q1972.96 233.022 1975.53 233.022 Q1979.07 233.022 1981.2 230.522 Q1983.35 227.999 1983.35 223.832 L1983.35 222.883 L1979.12 222.883 M1987.61 221.124 L1987.61 235.916 L1983.35 235.916 L1983.35 231.981 Q1981.9 234.342 1979.72 235.476 Q1977.54 236.587 1974.4 236.587 Q1970.41 236.587 1968.05 234.365 Q1965.71 232.119 1965.71 228.369 Q1965.71 223.994 1968.63 221.772 Q1971.57 219.55 1977.38 219.55 L1983.35 219.55 L1983.35 219.133 Q1983.35 216.194 1981.41 214.596 Q1979.49 212.976 1975.99 212.976 Q1973.77 212.976 1971.66 213.508 Q1969.56 214.041 1967.61 215.106 L1967.61 211.17 Q1969.95 210.268 1972.15 209.828 Q1974.35 209.365 1976.43 209.365 Q1982.06 209.365 1984.84 212.282 Q1987.61 215.198 1987.61 221.124 Z" fill="#000000" fill-rule="nonzero" fill-opacity="1"></path><path clip-path="url(#clip740)" d="M1996.39 209.99 L2000.65 209.99 L2000.65 235.916 L1996.39 235.916 L1996.39 209.99 M1996.39 199.897 L2000.65 199.897 L2000.65 205.291 L1996.39 205.291 L1996.39 199.897 Z" fill="#000000" fill-rule="nonzero" fill-opacity="1"></path><path clip-path="url(#clip740)" d="M2031.11 220.268 L2031.11 235.916 L2026.85 235.916 L2026.85 220.407 Q2026.85 216.726 2025.41 214.897 Q2023.98 213.069 2021.11 213.069 Q2017.66 213.069 2015.67 215.268 Q2013.68 217.467 2013.68 221.263 L2013.68 235.916 L2009.4 235.916 L2009.4 209.99 L2013.68 209.99 L2013.68 214.018 Q2015.21 211.68 2017.27 210.522 Q2019.35 209.365 2022.06 209.365 Q2026.52 209.365 2028.82 212.143 Q2031.11 214.897 2031.11 220.268 Z" fill="#000000" fill-rule="nonzero" fill-opacity="1"></path><path clip-path="url(#clip740)" d="M2039.6 209.99 L2043.86 209.99 L2043.86 235.916 L2039.6 235.916 L2039.6 209.99 M2039.6 199.897 L2043.86 199.897 L2043.86 205.291 L2039.6 205.291 L2039.6 199.897 Z" fill="#000000" fill-rule="nonzero" fill-opacity="1"></path><path clip-path="url(#clip740)" d="M2074.33 220.268 L2074.33 235.916 L2070.07 235.916 L2070.07 220.407 Q2070.07 216.726 2068.63 214.897 Q2067.2 213.069 2064.33 213.069 Q2060.88 213.069 2058.89 215.268 Q2056.9 217.467 2056.9 221.263 L2056.9 235.916 L2052.61 235.916 L2052.61 209.99 L2056.9 209.99 L2056.9 214.018 Q2058.42 211.68 2060.48 210.522 Q2062.57 209.365 2065.27 209.365 Q2069.74 209.365 2072.03 212.143 Q2074.33 214.897 2074.33 220.268 Z" fill="#000000" fill-rule="nonzero" fill-opacity="1"></path><path clip-path="url(#clip740)" d="M2099.88 222.652 Q2099.88 218.022 2097.96 215.476 Q2096.06 212.93 2092.61 212.93 Q2089.19 212.93 2087.27 215.476 Q2085.37 218.022 2085.37 222.652 Q2085.37 227.258 2087.27 229.805 Q2089.19 232.351 2092.61 232.351 Q2096.06 232.351 2097.96 229.805 Q2099.88 227.258 2099.88 222.652 M2104.14 232.698 Q2104.14 239.318 2101.2 242.536 Q2098.26 245.777 2092.2 245.777 Q2089.95 245.777 2087.96 245.43 Q2085.97 245.105 2084.09 244.411 L2084.09 240.268 Q2085.97 241.286 2087.8 241.772 Q2089.63 242.258 2091.52 242.258 Q2095.71 242.258 2097.8 240.059 Q2099.88 237.883 2099.88 233.462 L2099.88 231.356 Q2098.56 233.647 2096.5 234.781 Q2094.44 235.916 2091.57 235.916 Q2086.8 235.916 2083.89 232.281 Q2080.97 228.647 2080.97 222.652 Q2080.97 216.633 2083.89 212.999 Q2086.8 209.365 2091.57 209.365 Q2094.44 209.365 2096.5 210.499 Q2098.56 211.633 2099.88 213.925 L2099.88 209.99 L2104.14 209.99 L2104.14 232.698 Z" fill="#000000" fill-rule="nonzero" fill-opacity="1"></path><path clip-path="url(#clip740)" d="M2127.98 199.897 L2132.24 199.897 L2132.24 235.916 L2127.98 235.916 L2127.98 199.897 Z" fill="#000000" fill-rule="nonzero" fill-opacity="1"></path><path clip-path="url(#clip740)" d="M2151.2 212.976 Q2147.77 212.976 2145.78 215.661 Q2143.79 218.323 2143.79 222.976 Q2143.79 227.629 2145.76 230.314 Q2147.75 232.976 2151.2 232.976 Q2154.6 232.976 2156.59 230.291 Q2158.58 227.606 2158.58 222.976 Q2158.58 218.37 2156.59 215.684 Q2154.6 212.976 2151.2 212.976 M2151.2 209.365 Q2156.76 209.365 2159.93 212.976 Q2163.1 216.587 2163.1 222.976 Q2163.1 229.342 2159.93 232.976 Q2156.76 236.587 2151.2 236.587 Q2145.62 236.587 2142.45 232.976 Q2139.3 229.342 2139.3 222.976 Q2139.3 216.587 2142.45 212.976 Q2145.62 209.365 2151.2 209.365 Z" fill="#000000" fill-rule="nonzero" fill-opacity="1"></path><path clip-path="url(#clip740)" d="M2186.69 210.754 L2186.69 214.782 Q2184.88 213.856 2182.94 213.393 Q2180.99 212.93 2178.91 212.93 Q2175.74 212.93 2174.14 213.902 Q2172.57 214.874 2172.57 216.819 Q2172.57 218.3 2173.7 219.157 Q2174.83 219.99 2178.26 220.754 L2179.72 221.078 Q2184.26 222.05 2186.15 223.832 Q2188.07 225.592 2188.07 228.763 Q2188.07 232.374 2185.2 234.481 Q2182.36 236.587 2177.36 236.587 Q2175.27 236.587 2173.01 236.17 Q2170.76 235.777 2168.26 234.967 L2168.26 230.569 Q2170.62 231.795 2172.91 232.42 Q2175.2 233.022 2177.45 233.022 Q2180.46 233.022 2182.08 232.004 Q2183.7 230.962 2183.7 229.087 Q2183.7 227.351 2182.52 226.425 Q2181.36 225.499 2177.4 224.643 L2175.92 224.295 Q2171.96 223.462 2170.2 221.749 Q2168.45 220.013 2168.45 217.004 Q2168.45 213.346 2171.04 211.356 Q2173.63 209.365 2178.4 209.365 Q2180.76 209.365 2182.84 209.712 Q2184.93 210.059 2186.69 210.754 Z" fill="#000000" fill-rule="nonzero" fill-opacity="1"></path><path clip-path="url(#clip740)" d="M2211.38 210.754 L2211.38 214.782 Q2209.58 213.856 2207.63 213.393 Q2205.69 212.93 2203.61 212.93 Q2200.44 212.93 2198.84 213.902 Q2197.26 214.874 2197.26 216.819 Q2197.26 218.3 2198.4 219.157 Q2199.53 219.99 2202.96 220.754 L2204.42 221.078 Q2208.95 222.05 2210.85 223.832 Q2212.77 225.592 2212.77 228.763 Q2212.77 232.374 2209.9 234.481 Q2207.06 236.587 2202.06 236.587 Q2199.97 236.587 2197.7 236.17 Q2195.46 235.777 2192.96 234.967 L2192.96 230.569 Q2195.32 231.795 2197.61 232.42 Q2199.9 233.022 2202.15 233.022 Q2205.16 233.022 2206.78 232.004 Q2208.4 230.962 2208.4 229.087 Q2208.4 227.351 2207.22 226.425 Q2206.06 225.499 2202.1 224.643 L2200.62 224.295 Q2196.66 223.462 2194.9 221.749 Q2193.14 220.013 2193.14 217.004 Q2193.14 213.346 2195.74 211.356 Q2198.33 209.365 2203.1 209.365 Q2205.46 209.365 2207.54 209.712 Q2209.63 210.059 2211.38 210.754 Z" fill="#000000" fill-rule="nonzero" fill-opacity="1"></path><polyline clip-path="url(#clip740)" style="stroke:#ffa500; stroke-linecap:round; stroke-linejoin:round; stroke-width:12; stroke-opacity:1; fill:none" points="1757.7,270.476 1897.88,270.476 "></polyline>
<path clip-path="url(#clip740)" d="M1934.44 287.756 L1921.25 253.196 L1926.13 253.196 L1937.08 282.293 L1948.05 253.196 L1952.91 253.196 L1939.74 287.756 L1934.44 287.756 Z" fill="#000000" fill-rule="nonzero" fill-opacity="1"></path><path clip-path="url(#clip740)" d="M1965.88 274.723 Q1960.71 274.723 1958.72 275.904 Q1956.73 277.084 1956.73 279.932 Q1956.73 282.2 1958.21 283.543 Q1959.72 284.862 1962.29 284.862 Q1965.83 284.862 1967.96 282.362 Q1970.11 279.839 1970.11 275.672 L1970.11 274.723 L1965.88 274.723 M1974.37 272.964 L1974.37 287.756 L1970.11 287.756 L1970.11 283.821 Q1968.65 286.182 1966.48 287.316 Q1964.3 288.427 1961.15 288.427 Q1957.17 288.427 1954.81 286.205 Q1952.47 283.959 1952.47 280.209 Q1952.47 275.834 1955.39 273.612 Q1958.33 271.39 1964.14 271.39 L1970.11 271.39 L1970.11 270.973 Q1970.11 268.034 1968.17 266.436 Q1966.25 264.816 1962.75 264.816 Q1960.53 264.816 1958.42 265.348 Q1956.32 265.881 1954.37 266.946 L1954.37 263.01 Q1956.71 262.108 1958.91 261.668 Q1961.11 261.205 1963.19 261.205 Q1968.82 261.205 1971.59 264.122 Q1974.37 267.038 1974.37 272.964 Z" fill="#000000" fill-rule="nonzero" fill-opacity="1"></path><path clip-path="url(#clip740)" d="M1983.15 251.737 L1987.4 251.737 L1987.4 287.756 L1983.15 287.756 L1983.15 251.737 Z" fill="#000000" fill-rule="nonzero" fill-opacity="1"></path><path clip-path="url(#clip740)" d="M1996.32 261.83 L2000.58 261.83 L2000.58 287.756 L1996.32 287.756 L1996.32 261.83 M1996.32 251.737 L2000.58 251.737 L2000.58 257.131 L1996.32 257.131 L1996.32 251.737 Z" fill="#000000" fill-rule="nonzero" fill-opacity="1"></path><path clip-path="url(#clip740)" d="M2026.55 265.765 L2026.55 251.737 L2030.81 251.737 L2030.81 287.756 L2026.55 287.756 L2026.55 283.867 Q2025.21 286.182 2023.15 287.316 Q2021.11 288.427 2018.24 288.427 Q2013.54 288.427 2010.58 284.677 Q2007.64 280.927 2007.64 274.816 Q2007.64 268.705 2010.58 264.955 Q2013.54 261.205 2018.24 261.205 Q2021.11 261.205 2023.15 262.339 Q2025.21 263.45 2026.55 265.765 M2012.03 274.816 Q2012.03 279.515 2013.96 282.2 Q2015.9 284.862 2019.28 284.862 Q2022.66 284.862 2024.6 282.2 Q2026.55 279.515 2026.55 274.816 Q2026.55 270.117 2024.6 267.455 Q2022.66 264.77 2019.28 264.77 Q2015.9 264.77 2013.96 267.455 Q2012.03 270.117 2012.03 274.816 Z" fill="#000000" fill-rule="nonzero" fill-opacity="1"></path><path clip-path="url(#clip740)" d="M2051.36 274.723 Q2046.2 274.723 2044.21 275.904 Q2042.22 277.084 2042.22 279.932 Q2042.22 282.2 2043.7 283.543 Q2045.21 284.862 2047.77 284.862 Q2051.32 284.862 2053.45 282.362 Q2055.6 279.839 2055.6 275.672 L2055.6 274.723 L2051.36 274.723 M2059.86 272.964 L2059.86 287.756 L2055.6 287.756 L2055.6 283.821 Q2054.14 286.182 2051.96 287.316 Q2049.79 288.427 2046.64 288.427 Q2042.66 288.427 2040.3 286.205 Q2037.96 283.959 2037.96 280.209 Q2037.96 275.834 2040.88 273.612 Q2043.82 271.39 2049.63 271.39 L2055.6 271.39 L2055.6 270.973 Q2055.6 268.034 2053.65 266.436 Q2051.73 264.816 2048.24 264.816 Q2046.02 264.816 2043.91 265.348 Q2041.8 265.881 2039.86 266.946 L2039.86 263.01 Q2042.2 262.108 2044.4 261.668 Q2046.59 261.205 2048.68 261.205 Q2054.3 261.205 2057.08 264.122 Q2059.86 267.038 2059.86 272.964 Z" fill="#000000" fill-rule="nonzero" fill-opacity="1"></path><path clip-path="url(#clip740)" d="M2072.84 254.469 L2072.84 261.83 L2081.62 261.83 L2081.62 265.14 L2072.84 265.14 L2072.84 279.214 Q2072.84 282.385 2073.7 283.288 Q2074.58 284.191 2077.24 284.191 L2081.62 284.191 L2081.62 287.756 L2077.24 287.756 Q2072.31 287.756 2070.44 285.927 Q2068.56 284.075 2068.56 279.214 L2068.56 265.14 L2065.44 265.14 L2065.44 261.83 L2068.56 261.83 L2068.56 254.469 L2072.84 254.469 Z" fill="#000000" fill-rule="nonzero" fill-opacity="1"></path><path clip-path="url(#clip740)" d="M2087.22 261.83 L2091.48 261.83 L2091.48 287.756 L2087.22 287.756 L2087.22 261.83 M2087.22 251.737 L2091.48 251.737 L2091.48 257.131 L2087.22 257.131 L2087.22 251.737 Z" fill="#000000" fill-rule="nonzero" fill-opacity="1"></path><path clip-path="url(#clip740)" d="M2110.44 264.816 Q2107.01 264.816 2105.02 267.501 Q2103.03 270.163 2103.03 274.816 Q2103.03 279.469 2105 282.154 Q2106.99 284.816 2110.44 284.816 Q2113.84 284.816 2115.83 282.131 Q2117.82 279.446 2117.82 274.816 Q2117.82 270.21 2115.83 267.524 Q2113.84 264.816 2110.44 264.816 M2110.44 261.205 Q2115.99 261.205 2119.16 264.816 Q2122.33 268.427 2122.33 274.816 Q2122.33 281.182 2119.16 284.816 Q2115.99 288.427 2110.44 288.427 Q2104.86 288.427 2101.69 284.816 Q2098.54 281.182 2098.54 274.816 Q2098.54 268.427 2101.69 264.816 Q2104.86 261.205 2110.44 261.205 Z" fill="#000000" fill-rule="nonzero" fill-opacity="1"></path><path clip-path="url(#clip740)" d="M2150.95 272.108 L2150.95 287.756 L2146.69 287.756 L2146.69 272.247 Q2146.69 268.566 2145.25 266.737 Q2143.82 264.909 2140.95 264.909 Q2137.5 264.909 2135.51 267.108 Q2133.51 269.307 2133.51 273.103 L2133.51 287.756 L2129.23 287.756 L2129.23 261.83 L2133.51 261.83 L2133.51 265.858 Q2135.04 263.52 2137.1 262.362 Q2139.19 261.205 2141.89 261.205 Q2146.36 261.205 2148.65 263.983 Q2150.95 266.737 2150.95 272.108 Z" fill="#000000" fill-rule="nonzero" fill-opacity="1"></path><path clip-path="url(#clip740)" d="M2174.51 251.737 L2178.77 251.737 L2178.77 287.756 L2174.51 287.756 L2174.51 251.737 Z" fill="#000000" fill-rule="nonzero" fill-opacity="1"></path><path clip-path="url(#clip740)" d="M2197.73 264.816 Q2194.3 264.816 2192.31 267.501 Q2190.32 270.163 2190.32 274.816 Q2190.32 279.469 2192.29 282.154 Q2194.28 284.816 2197.73 284.816 Q2201.13 284.816 2203.12 282.131 Q2205.11 279.446 2205.11 274.816 Q2205.11 270.21 2203.12 267.524 Q2201.13 264.816 2197.73 264.816 M2197.73 261.205 Q2203.28 261.205 2206.45 264.816 Q2209.63 268.427 2209.63 274.816 Q2209.63 281.182 2206.45 284.816 Q2203.28 288.427 2197.73 288.427 Q2192.15 288.427 2188.98 284.816 Q2185.83 281.182 2185.83 274.816 Q2185.83 268.427 2188.98 264.816 Q2192.15 261.205 2197.73 261.205 Z" fill="#000000" fill-rule="nonzero" fill-opacity="1"></path><path clip-path="url(#clip740)" d="M2233.21 262.594 L2233.21 266.622 Q2231.41 265.696 2229.46 265.233 Q2227.52 264.77 2225.44 264.77 Q2222.26 264.77 2220.67 265.742 Q2219.09 266.714 2219.09 268.659 Q2219.09 270.14 2220.23 270.997 Q2221.36 271.83 2224.79 272.594 L2226.25 272.918 Q2230.78 273.89 2232.68 275.672 Q2234.6 277.432 2234.6 280.603 Q2234.6 284.214 2231.73 286.321 Q2228.88 288.427 2223.88 288.427 Q2221.8 288.427 2219.53 288.01 Q2217.29 287.617 2214.79 286.807 L2214.79 282.409 Q2217.15 283.635 2219.44 284.26 Q2221.73 284.862 2223.98 284.862 Q2226.99 284.862 2228.61 283.844 Q2230.23 282.802 2230.23 280.927 Q2230.23 279.191 2229.05 278.265 Q2227.89 277.339 2223.93 276.483 L2222.45 276.135 Q2218.49 275.302 2216.73 273.589 Q2214.97 271.853 2214.97 268.844 Q2214.97 265.186 2217.57 263.196 Q2220.16 261.205 2224.93 261.205 Q2227.29 261.205 2229.37 261.552 Q2231.45 261.899 2233.21 262.594 Z" fill="#000000" fill-rule="nonzero" fill-opacity="1"></path><path clip-path="url(#clip740)" d="M2257.91 262.594 L2257.91 266.622 Q2256.11 265.696 2254.16 265.233 Q2252.22 264.77 2250.13 264.77 Q2246.96 264.77 2245.37 265.742 Q2243.79 266.714 2243.79 268.659 Q2243.79 270.14 2244.93 270.997 Q2246.06 271.83 2249.49 272.594 L2250.94 272.918 Q2255.48 273.89 2257.38 275.672 Q2259.3 277.432 2259.3 280.603 Q2259.3 284.214 2256.43 286.321 Q2253.58 288.427 2248.58 288.427 Q2246.5 288.427 2244.23 288.01 Q2241.99 287.617 2239.49 286.807 L2239.49 282.409 Q2241.85 283.635 2244.14 284.26 Q2246.43 284.862 2248.68 284.862 Q2251.69 284.862 2253.31 283.844 Q2254.93 282.802 2254.93 280.927 Q2254.93 279.191 2253.75 278.265 Q2252.59 277.339 2248.63 276.483 L2247.15 276.135 Q2243.19 275.302 2241.43 273.589 Q2239.67 271.853 2239.67 268.844 Q2239.67 265.186 2242.26 263.196 Q2244.86 261.205 2249.63 261.205 Q2251.99 261.205 2254.07 261.552 Q2256.15 261.899 2257.91 262.594 Z" fill="#000000" fill-rule="nonzero" fill-opacity="1"></path></svg>